<?xml version="1.0" standalone="no"?>
<!DOCTYPE svg PUBLIC "-//W3C//DTD SVG 20010904//EN"
 "http://www.w3.org/TR/2001/REC-SVG-20010904/DTD/svg10.dtd">
<svg version="1.0" xmlns="http://www.w3.org/2000/svg"
 width="1902.000000pt" height="1902.000000pt" viewBox="0 0 1902.000000 1902.000000"
 preserveAspectRatio="xMidYMid meet">

<g transform="translate(0.000000,1902.000000) scale(0.100000,-0.100000)"
fill="#000000" stroke="none">
<path d="M6970 16413 c-33 -12 -60 -47 -60 -78 0 -48 80 -137 215 -239 39 -29
76 -61 84 -70 7 -9 23 -16 35 -16 25 0 116 -87 116 -112 0 -17 -121 -74 -138
-64 -5 3 -24 -6 -42 -19 -18 -13 -46 -27 -64 -31 -17 -4 -133 -56 -259 -116
-307 -147 -448 -193 -742 -239 -188 -30 -263 -36 -518 -45 -306 -10 -304 -8
-252 -211 14 -54 46 -140 71 -191 49 -100 101 -158 307 -346 48 -44 87 -87 87
-97 0 -10 -13 -41 -30 -69 -16 -28 -30 -52 -30 -54 0 -8 141 -68 152 -64 13 6
158 249 158 266 0 6 -56 58 -125 117 -239 204 -298 296 -365 563 -6 23 -5 34
3 37 7 2 95 6 197 10 318 10 615 48 795 100 133 39 238 82 490 203 127 61 297
138 378 171 82 32 150 61 153 63 10 11 -80 98 -214 205 -223 179 -304 263
-239 248 12 -2 90 -14 172 -26 83 -11 269 -43 415 -69 407 -75 501 -84 830
-85 157 0 438 4 625 9 672 17 1047 -37 1545 -224 98 -37 176 -60 201 -60 22 0
144 27 272 59 363 93 565 121 868 121 381 0 695 -55 1379 -243 168 -47 191
-56 173 -65 -49 -27 -242 -64 -504 -97 -310 -39 -401 -55 -406 -71 -2 -6 83
-76 189 -155 289 -216 414 -324 545 -474 206 -236 303 -476 303 -752 0 -56 -3
-104 -7 -106 -5 -3 -77 22 -161 55 -84 33 -158 58 -165 55 -9 -3 -9 -54 -1
-228 36 -688 96 -879 314 -989 59 -30 269 -94 278 -85 3 2 -24 18 -59 34 -160
72 -225 219 -268 601 -15 131 -34 451 -27 457 3 3 55 -13 115 -36 61 -22 118
-41 128 -41 30 0 83 38 94 68 7 17 9 84 6 177 -5 175 -29 283 -98 436 -38 84
-132 239 -151 247 -5 2 -8 8 -8 14 0 6 -20 33 -45 59 -25 26 -45 53 -45 59 0
5 -6 10 -12 10 -7 0 -26 18 -42 40 -17 22 -35 40 -41 40 -6 0 -42 32 -80 71
-79 80 -221 196 -360 295 -52 37 -95 70 -95 74 0 3 98 19 218 34 119 15 258
36 307 47 50 11 115 24 145 30 62 13 139 36 156 47 6 4 15 30 18 58 7 50 7 50
-31 76 -57 38 -714 208 -998 258 -66 11 -136 25 -155 30 -168 45 -703 64 -851
31 -24 -6 -125 -22 -224 -37 -99 -15 -277 -51 -395 -81 -136 -35 -227 -53
-247 -50 -17 3 -83 26 -147 52 -64 25 -132 49 -151 52 -20 3 -38 10 -41 14 -3
5 -18 9 -34 9 -16 0 -32 5 -35 10 -3 6 -17 10 -30 10 -13 0 -27 5 -30 10 -3 6
-17 10 -31 10 -23 0 -181 35 -214 47 -8 4 -22 5 -32 4 -9 -1 -19 2 -22 8 -3 5
-15 7 -25 4 -10 -3 -22 0 -25 6 -4 6 -20 8 -35 5 -16 -3 -32 -1 -35 5 -4 6
-20 8 -35 5 -16 -4 -32 -1 -35 5 -5 7 -22 9 -45 5 -23 -4 -41 -2 -45 5 -4 6
-24 8 -50 5 -27 -4 -46 -2 -50 5 -5 7 -30 9 -77 5 -39 -4 -69 -3 -69 2 0 5
-143 9 -330 9 -187 0 -330 -3 -330 -8 0 -6 -45 -6 -105 -2 -58 4 -105 3 -105
-2 0 -8 -448 -7 -535 3 -27 3 -122 14 -210 24 -88 11 -205 22 -259 25 -76 4
-112 11 -150 29 -28 13 -76 27 -106 31 -30 3 -72 11 -92 16 -39 10 -127 20
-167 19 -13 0 -29 4 -35 9 -6 5 -55 14 -108 20 -103 12 -134 13 -158 4z"/>
<path d="M7845 16001 c10 -12 70 -54 132 -92 62 -39 113 -74 113 -78 0 -4 -44
-15 -97 -25 -220 -41 -406 -110 -768 -286 -500 -243 -740 -310 -1230 -348
l-90 -7 -3 -44 c-7 -99 93 -207 316 -340 75 -45 143 -85 150 -90 11 -6 -7 -44
-77 -163 -99 -169 -145 -264 -172 -348 -9 -30 -24 -59 -32 -64 -26 -16 -180 8
-303 48 -61 20 -118 36 -127 36 -14 0 -17 -12 -17 -79 0 -182 58 -366 162
-518 16 -24 24 -43 18 -43 -6 0 -46 18 -90 40 -44 22 -84 40 -89 40 -15 0 -23
-141 -12 -229 13 -103 35 -148 110 -226 70 -72 141 -162 141 -178 0 -7 -167
-61 -388 -126 -787 -233 -1104 -329 -1114 -339 -6 -6 -26 -88 -44 -181 -30
-150 -46 -256 -85 -546 -13 -95 -54 -497 -84 -810 -9 -93 -31 -291 -50 -440
-30 -241 -51 -393 -126 -940 -11 -82 -24 -179 -29 -215 -8 -61 -17 -124 -41
-300 -15 -105 -25 -181 -48 -365 -11 -88 -27 -212 -35 -275 -9 -63 -25 -203
-36 -310 -11 -107 -23 -221 -26 -252 l-7 -57 64 -29 c95 -44 174 -80 264 -119
44 -19 95 -41 112 -49 18 -8 50 -21 70 -29 21 -7 76 -30 123 -50 47 -20 130
-54 185 -75 185 -70 260 -100 279 -111 10 -6 39 -17 65 -24 25 -7 80 -27 121
-45 41 -17 118 -47 170 -66 52 -19 110 -42 128 -50 19 -9 36 -13 39 -10 3 2
-75 83 -174 179 -98 97 -184 186 -190 199 -22 47 -100 411 -125 583 -18 121
-15 548 3 630 l14 60 105 37 c163 58 218 71 310 71 171 1 295 -72 423 -249 20
-27 59 -67 87 -89 29 -22 61 -47 72 -56 21 -16 36 -72 79 -289 36 -186 58
-244 125 -334 69 -93 74 -98 144 -145 36 -25 121 -88 189 -140 68 -53 187
-145 265 -205 167 -128 300 -218 571 -386 234 -145 346 -227 380 -279 30 -44
57 -132 53 -169 -4 -32 18 -33 -258 14 -113 19 -234 39 -270 45 -87 13 -371
69 -480 95 -17 4 -22 2 -15 -5 26 -27 536 -137 930 -202 491 -80 532 -86 1275
-169 47 -6 166 -14 264 -20 99 -6 182 -12 185 -15 3 -3 -58 -4 -134 -1 -77 2
-120 1 -95 -3 l44 -6 -27 -18 c-37 -24 -27 -36 26 -30 42 5 45 4 51 -22 6 -24
11 -27 36 -21 16 3 32 1 36 -5 3 -6 16 -9 27 -8 52 4 66 -14 25 -31 -13 -5
-17 -9 -10 -9 6 -1 12 -9 12 -19 0 -10 6 -24 13 -31 10 -11 9 -13 -6 -7 -10 3
-25 6 -33 6 -8 0 -14 7 -14 15 0 8 6 15 12 15 7 0 2 7 -10 16 -12 8 -20 20
-16 25 7 12 -66 1 -80 -12 -6 -5 1 -19 17 -33 32 -30 19 -43 -22 -21 -40 20
-41 20 -35 -14 5 -24 2 -30 -16 -36 -14 -4 -25 -2 -30 5 -10 17 -31 3 -23 -15
3 -10 -1 -15 -12 -15 -15 0 -14 -3 6 -21 l24 -21 -30 7 c-17 4 -35 14 -41 22
-12 14 -99 21 -111 9 -4 -3 8 -6 25 -6 37 0 42 -17 10 -30 -13 -5 -18 -9 -11
-9 7 -1 27 -11 45 -23 27 -19 33 -29 33 -60 0 -32 -2 -35 -15 -23 -19 17 -167
51 -178 41 -4 -4 4 -16 17 -27 19 -16 21 -20 7 -25 -9 -3 -13 -11 -9 -16 4 -7
-3 -9 -19 -6 -22 4 -25 1 -24 -19 0 -13 6 -21 13 -19 6 3 43 0 82 -6 51 -7 71
-15 71 -25 0 -12 -10 -14 -44 -11 -40 3 -45 1 -43 -17 2 -17 -3 -20 -28 -17
l-31 3 1 -53 0 -53 -51 3 c-30 2 -55 -1 -58 -7 -4 -6 -2 -11 5 -11 8 0 8 -4
-1 -15 -7 -8 -25 -15 -40 -15 -28 0 -29 -3 -30 -65 -1 -16 -6 -33 -12 -36 -17
-11 0 -28 23 -22 12 4 25 0 30 -8 17 -27 9 -37 -28 -36 -20 1 -38 -4 -41 -11
-7 -23 -32 -12 -33 16 -1 22 -2 23 -6 5 -2 -12 -13 -25 -24 -28 -11 -4 -31
-17 -44 -31 -15 -15 -36 -24 -54 -24 -21 0 -32 -6 -36 -20 -5 -15 -12 -19 -27
-15 -13 5 -24 1 -33 -12 -11 -15 -18 -16 -43 -7 -41 16 -63 1 -26 -17 35 -17
42 -45 17 -64 -24 -19 -48 -18 -79 1 -13 9 -27 14 -31 11 -3 -4 2 -9 11 -13
17 -7 22 -34 6 -34 -19 0 -10 -21 22 -52 28 -28 35 -30 78 -25 59 7 157 48
224 92 47 33 65 38 52 17 -11 -18 -150 -89 -205 -106 -162 -48 -231 8 -239
193 l-4 94 31 -6 c17 -4 92 -10 166 -13 133 -7 136 -7 160 16 14 13 25 31 25
40 0 9 5 21 10 26 7 7 3 17 -12 32 -27 24 -141 42 -274 42 l-81 0 13 53 c8 28
23 78 35 110 17 45 26 57 43 57 35 0 288 -39 295 -45 10 -11 -24 -24 -79 -30
-105 -12 -112 -21 -22 -29 94 -8 187 0 219 20 42 27 58 182 22 227 -36 46 -74
50 -401 37 -164 -7 -315 -9 -334 -5 -23 4 -39 14 -46 30 -14 31 -49 43 -62 22
-9 -14 -15 -13 -58 4 -77 30 -175 43 -226 30 -63 -17 -181 -137 -255 -258 -18
-29 -35 -53 -38 -53 -3 0 -9 48 -13 107 -8 128 -36 256 -62 285 -47 52 -138
61 -243 25 -76 -26 -93 -45 -65 -74 56 -60 105 -154 174 -338 44 -116 51 -133
69 -178 10 -25 7 -36 -26 -95 -42 -73 -71 -153 -72 -192 -1 -57 84 -107 197
-117 52 -4 75 -2 100 11 28 15 31 19 21 37 -8 16 -7 25 6 39 12 13 14 23 7 37
-10 19 2 112 19 145 5 10 9 25 9 33 0 48 123 236 223 342 76 79 130 116 199
133 l45 12 46 -49 46 -48 -19 -32 c-11 -18 -33 -78 -51 -133 -28 -90 -34 -100
-55 -100 -13 0 -24 -4 -24 -10 0 -5 8 -9 18 -7 19 2 22 -3 22 -36 0 -15 -11
-28 -35 -41 -38 -21 -38 -40 1 -30 l26 7 -5 -69 c-5 -91 15 -184 50 -230 l27
-37 -23 8 c-14 4 -34 16 -45 27 -21 19 -21 19 -30 -1 -8 -19 -112 -60 -155
-62 -10 0 -6 -5 9 -11 21 -9 22 -12 7 -15 -28 -7 -16 -38 17 -41 17 -2 26 0
22 7 -10 15 13 24 29 11 41 -34 -5 -51 -140 -52 -57 -1 -71 2 -73 16 -3 15 15
22 42 17 18 -4 54 21 59 40 4 15 0 19 -23 19 -17 0 -30 -7 -34 -16 -5 -13 -15
-15 -43 -11 -20 4 -42 2 -49 -4 -7 -5 -30 -7 -54 -3 -30 5 -38 9 -28 16 9 7 7
8 -7 3 -53 -19 -58 -19 -51 3 8 23 -8 62 -25 62 -21 0 -36 -26 -34 -59 1 -20
-3 -35 -12 -38 -24 -9 -14 -23 17 -23 17 0 30 5 30 10 0 20 39 10 66 -16 l26
-27 -30 6 c-17 3 -43 2 -60 -2 -22 -7 -40 -3 -78 15 -59 29 -62 29 -40 5 19
-21 14 -41 -10 -41 -8 0 -12 5 -9 10 4 6 1 17 -5 25 -14 17 -60 20 -60 5 0 -5
-7 -10 -15 -10 -8 0 -15 -4 -15 -10 0 -5 -7 -10 -15 -10 -8 0 -14 4 -13 9 2 5
-6 17 -17 25 -20 15 -20 15 3 16 15 0 22 6 22 19 0 11 4 22 10 26 5 3 7 12 3
20 -3 8 0 15 6 15 6 0 11 5 11 10 0 6 -4 10 -10 10 -14 0 -50 -32 -50 -45 0
-30 -26 -65 -50 -66 -27 0 -71 -16 -55 -19 6 -1 24 -2 40 -1 29 2 29 1 11 -14
-19 -14 -18 -15 17 -15 50 0 47 -15 -3 -17 -22 -1 -40 2 -40 6 0 5 -17 12 -37
16 -24 4 -49 19 -67 38 -15 18 -23 25 -17 16 9 -13 4 -19 -25 -32 -38 -18 -54
-15 -54 10 0 11 -6 14 -20 9 -11 -3 -29 -9 -40 -12 -12 -4 -20 -2 -20 5 0 6
-15 11 -34 11 -28 0 -35 -4 -40 -25 -4 -14 -11 -25 -17 -25 -6 0 -8 4 -5 8 3
5 -5 20 -17 33 -12 13 -21 27 -19 32 1 4 -21 5 -49 1 -43 -6 -54 -4 -65 11
-15 21 -46 13 -38 -10 5 -11 -1 -15 -25 -15 -32 0 -39 8 -21 26 6 6 -7 9 -38
9 -35 0 -47 -4 -47 -15 0 -18 -33 -26 -48 -11 -8 8 -5 11 10 11 16 0 20 5 16
20 -8 29 -21 34 -39 15 -12 -11 -25 -14 -48 -9 -41 9 -46 12 -39 29 3 10 -1
15 -11 15 -25 0 -31 -28 -11 -50 10 -11 13 -20 8 -20 -6 0 -16 7 -23 15 -7 8
-18 15 -25 15 -7 0 -15 9 -18 20 -3 11 -12 20 -21 20 -9 0 -16 5 -16 10 0 6 8
10 18 10 14 0 15 2 2 10 -13 9 -13 11 0 21 11 8 2 9 -36 5 -29 -2 -56 0 -62 6
-5 5 -18 8 -28 5 -18 -5 -18 -5 1 -12 30 -9 51 -45 33 -56 -17 -12 -28 -11
-28 1 0 16 -55 39 -71 29 -21 -13 -39 -11 -39 6 0 11 -12 15 -47 15 -55 0 -89
-15 -60 -26 18 -7 23 -24 7 -24 -6 0 -33 16 -60 35 -58 41 -58 41 -99 18 -28
-16 -33 -16 -41 -3 -6 9 -6 18 0 24 15 15 12 22 -14 34 -14 6 -30 21 -37 34
-9 19 -9 21 2 11 13 -13 49 -18 49 -8 0 17 -35 54 -56 59 -13 4 -24 14 -24 22
0 13 -6 15 -27 10 -16 -4 -41 -10 -56 -13 -16 -3 -34 -14 -40 -25 -7 -11 -32
-29 -56 -39 -30 -14 -41 -24 -37 -34 7 -20 -15 -19 -59 2 -39 19 -61 9 -30
-13 17 -12 18 -16 5 -24 -18 -11 -29 -4 -40 26 -7 18 -17 24 -39 24 -16 0 -33
4 -36 10 -3 6 -16 10 -27 10 -20 0 -21 -1 -3 -20 15 -17 16 -20 3 -20 -9 0
-22 10 -30 22 -14 21 -18 21 -44 9 l-29 -13 24 -19 c35 -29 69 -34 90 -15 17
16 20 16 36 -1 17 -17 17 -18 -10 -29 -35 -14 -67 -6 -139 35 -29 17 -67 31
-83 31 -22 0 -33 7 -41 25 -14 30 -43 32 -60 5 -7 -11 -21 -20 -31 -20 -21 0
-35 -36 -19 -46 6 -4 15 1 20 10 11 19 39 21 56 4 20 -20 14 -31 -15 -24 -15
4 -29 3 -33 -4 -9 -14 -76 2 -73 18 2 6 -6 14 -17 17 -11 4 -20 15 -20 26 0
26 -26 35 -45 15 -19 -19 -58 -21 -85 -4 -24 15 -41 1 -19 -16 9 -6 70 -27
135 -46 64 -19 112 -36 106 -38 -35 -11 -854 270 -1159 398 -25 10 -31 -1 -11
-17 7 -6 31 -16 53 -23 22 -7 45 -16 50 -20 6 -4 28 -13 50 -20 22 -7 45 -16
50 -20 6 -4 21 -11 35 -15 14 -4 39 -13 55 -21 54 -24 195 -73 510 -178 329
-110 449 -147 730 -226 44 -12 100 -29 125 -36 91 -28 645 -164 667 -164 12 0
24 -4 27 -9 3 -4 33 -14 67 -21 49 -11 71 -11 106 -2 53 15 143 16 143 2 0 -5
23 -10 50 -10 28 0 50 -4 50 -10 0 -5 23 -10 50 -10 28 0 50 -4 50 -10 0 -5 9
-10 20 -10 15 0 20 -7 20 -25 0 -25 34 -65 57 -65 7 0 13 -4 13 -9 0 -5 8 -11
18 -14 9 -4 37 -18 62 -33 25 -15 60 -35 78 -45 17 -11 49 -29 70 -41 59 -34
140 -77 227 -122 44 -23 82 -44 83 -48 2 -5 12 -8 23 -8 10 0 19 -4 19 -10 0
-5 9 -10 20 -10 11 0 20 -4 20 -10 0 -5 9 -10 19 -10 11 0 21 -3 23 -8 4 -10
330 -172 346 -172 6 0 12 -4 12 -10 0 -5 9 -10 20 -10 11 0 20 -4 20 -10 0 -5
6 -10 13 -10 11 0 56 -21 241 -111 32 -16 65 -29 72 -29 8 0 14 -4 14 -10 0
-5 6 -10 14 -10 7 0 40 -13 72 -29 32 -16 79 -38 104 -49 62 -27 181 -82 202
-93 10 -5 25 -9 33 -9 8 0 15 -4 15 -10 0 -5 6 -10 14 -10 8 0 34 -10 58 -21
23 -12 52 -25 63 -29 11 -4 43 -18 70 -30 28 -12 60 -26 73 -31 30 -12 66 -27
100 -40 30 -13 64 -27 102 -42 14 -5 33 -13 42 -18 10 -5 26 -9 36 -9 10 0 22
-4 27 -8 6 -4 28 -14 50 -21 22 -7 51 -17 65 -23 42 -18 63 -25 110 -38 25 -7
56 -16 70 -20 24 -7 55 -16 145 -39 22 -5 63 -16 90 -23 66 -17 299 -18 317 0
6 6 19 12 27 12 19 0 150 38 173 51 10 5 25 9 33 9 8 0 23 4 33 10 9 5 46 19
82 31 36 12 69 25 75 30 5 5 19 9 31 9 13 0 26 5 29 10 3 6 13 10 21 10 8 0
34 9 56 20 23 11 47 20 52 20 6 0 38 14 71 30 33 17 65 30 71 30 7 0 38 14 69
30 31 17 62 30 69 30 6 0 56 23 111 50 55 28 105 50 111 50 6 0 64 27 129 60
65 33 123 60 129 60 15 0 1092 538 1141 570 22 14 72 41 110 60 39 19 88 46
110 60 22 14 72 41 110 60 39 19 88 46 110 60 22 14 54 32 70 40 17 8 49 27
72 42 23 15 44 28 48 28 4 0 26 14 50 30 24 17 46 30 50 30 4 0 26 13 50 30
24 17 46 30 50 30 3 0 39 23 80 50 41 28 77 50 80 50 3 0 39 23 80 50 41 28
77 50 80 50 6 0 509 338 610 410 39 27 102 73 140 100 39 28 98 69 132 93 35
23 63 48 63 55 0 8 18 12 54 12 30 0 58 5 61 10 8 12 37 9 47 -5 5 -6 8 -5 8
3 0 9 31 12 120 12 73 0 120 4 120 10 0 6 18 10 39 10 22 0 46 3 55 6 14 5 14
8 0 29 -11 16 -12 25 -4 30 6 4 12 5 13 4 24 -47 51 -58 103 -45 37 10 29 22
-26 42 -27 10 -50 20 -50 23 0 4 -19 6 -42 6 -24 1 -52 4 -63 9 -19 7 -19 7
-2 -7 22 -18 14 -24 -42 -33 -29 -5 -38 -10 -29 -15 8 -5 -1 -6 -22 -3 -41 8
-51 14 -23 14 25 0 38 26 16 34 -16 7 -66 -27 -56 -38 3 -3 -6 -6 -21 -6 -16
0 -43 -7 -61 -16 -31 -15 -37 -14 -81 5 -57 25 -53 26 -47 0 5 -18 3 -20 -14
-15 -26 8 -53 -2 -53 -20 0 -10 16 -14 58 -15 78 -2 -82 -15 -280 -22 -125 -5
-148 -3 -148 9 0 18 -35 18 -52 0 -10 -11 -109 -12 -578 -9 -311 3 -568 8
-572 12 -4 3 165 5 375 4 335 -3 380 -1 363 12 -10 7 -30 12 -45 10 -101 -15
-119 -15 -124 5 -6 25 -39 27 -35 3 5 -27 -24 -26 -56 2 -35 30 -42 31 -49 5
-6 -24 -42 -27 -83 -5 -16 8 -43 15 -61 15 -17 0 -33 4 -35 9 -2 5 -15 13 -31
16 -22 6 -26 4 -21 -9 3 -9 10 -16 15 -16 5 0 9 -4 9 -10 0 -5 -11 -10 -24
-10 -30 0 -88 24 -80 33 4 4 13 2 21 -5 10 -8 17 -8 25 0 9 9 7 12 -9 12 -12
0 -24 4 -27 9 -3 5 -27 12 -53 16 -41 6 -45 9 -31 19 9 7 36 19 60 27 23 7 50
21 59 30 16 16 16 19 -2 38 -11 12 -26 21 -34 21 -9 0 -12 6 -9 15 4 10 20 15
45 15 38 0 44 6 40 38 -2 8 5 12 16 10 12 -3 17 -11 16 -26 -2 -18 2 -22 23
-22 14 0 23 -4 19 -10 -3 -6 5 -10 19 -10 13 0 32 -3 41 -6 10 -4 15 -2 13 7
-3 15 25 17 56 4 15 -7 17 -5 12 12 -4 13 -1 25 9 33 13 10 19 10 33 -4 23
-20 51 -20 80 0 15 10 32 14 49 9 23 -5 25 -4 14 9 -17 20 -55 21 -71 1 -17
-20 -27 -19 -47 5 -21 24 -39 26 -47 5 -9 -24 -34 -17 -48 13 -9 19 -22 28
-43 30 -17 1 -25 -1 -20 -5 19 -15 17 -43 -3 -43 -29 0 -62 41 -55 68 5 19 10
22 34 17 18 -4 29 -2 29 4 0 6 -6 11 -14 11 -7 0 -20 8 -27 17 -12 14 -12 16
0 8 10 -5 12 -4 7 4 -4 6 -16 9 -25 6 -10 -3 -29 -1 -42 4 -23 10 -23 10 6 11
28 1 29 1 11 15 -11 8 -29 12 -42 9 -12 -3 -25 -1 -28 5 -4 6 -18 11 -30 11
-26 0 -51 24 -42 39 3 5 -10 19 -30 31 -56 32 -86 12 -44 -30 11 -11 20 -26
20 -33 0 -17 -45 -38 -65 -31 -18 7 -20 21 -2 27 6 2 9 8 5 12 -4 4 -18 1 -32
-8 l-24 -16 24 49 c39 81 26 249 -20 258 -9 2 -35 -5 -59 -17 -47 -22 -164
-47 -174 -37 -3 3 6 6 20 6 19 0 25 4 21 15 -4 8 -1 15 6 15 7 0 9 8 5 20 -4
14 -2 20 9 20 18 0 40 -36 31 -50 -10 -16 41 7 69 31 l25 22 -22 18 c-20 16
-24 16 -39 2 -17 -16 -54 -11 -44 6 3 4 -11 11 -32 15 -56 9 -120 7 -127 -4
-3 -5 -16 -15 -28 -21 -16 -8 -13 -2 10 20 19 19 43 31 60 32 23 0 25 2 9 8
-18 7 -13 14 40 72 154 169 225 272 263 386 50 150 11 243 -121 290 -62 21
-238 24 -402 7 -80 -8 -110 -7 -155 5 -53 13 -61 13 -127 -7 -99 -30 -119 -48
-118 -105 0 -25 7 -72 14 -105 7 -33 10 -81 6 -108 -12 -102 -4 -175 20 -195
8 -6 14 -16 14 -22 0 -6 -9 -1 -20 11 -12 12 -33 22 -48 22 -25 1 -26 1 -7 12
29 16 29 16 15 33 -7 9 -10 18 -7 22 4 3 2 14 -4 25 -7 13 -7 29 -1 48 7 19 7
31 -1 39 -7 7 -8 11 0 11 5 0 10 17 9 37 -1 29 -6 40 -26 50 -14 7 -19 13 -12
13 21 0 13 28 -10 33 l-23 4 23 8 c27 9 28 23 2 33 -20 7 -20 8 0 44 l19 37
-33 21 c-38 23 -53 50 -35 61 8 5 5 11 -10 18 -17 10 -22 9 -27 -4 -11 -28
-31 -17 -26 15 4 25 1 30 -17 30 -11 0 -25 9 -31 19 -17 32 -40 51 -63 51 -21
-1 -21 -1 3 -15 l25 -14 -32 -1 c-62 0 -48 33 20 45 30 6 37 4 37 -9 0 -11 9
-16 26 -16 23 0 26 3 21 26 -4 23 -2 25 20 21 29 -5 25 0 -18 21 -39 20 -49
42 -20 42 12 0 21 5 21 10 0 6 -8 10 -18 10 -10 0 -19 8 -20 18 -1 9 -3 24 -4
32 -5 33 14 90 31 90 9 0 23 5 31 11 11 7 5 8 -21 3 -42 -7 -62 10 -27 22 22
8 21 8 -7 14 -23 4 -29 10 -27 25 3 15 1 17 -10 8 -7 -6 -28 -14 -45 -18 -26
-5 -33 -3 -33 9 0 9 -6 16 -13 16 -7 0 -18 9 -25 20 -11 17 -10 20 7 20 32 0
50 -11 44 -26 -3 -8 1 -14 11 -14 9 0 16 8 16 20 0 13 7 20 20 20 34 0 125
149 204 331 18 41 66 238 66 269 0 35 -28 21 -56 -27 -110 -190 -239 -349
-372 -455 -58 -47 -65 -49 -105 -43 -106 16 -104 10 -28 75 121 104 290 305
347 413 100 190 141 297 174 462 20 100 66 253 80 268 10 11 22 -8 31 -52 4
-20 17 -81 29 -136 72 -340 43 -600 -98 -875 -66 -127 -125 -210 -154 -217
-16 -3 -28 -9 -28 -14 0 -4 -10 -11 -22 -15 l-23 -8 25 -6 c17 -5 29 -2 37 8
8 10 23 13 50 8 168 -26 381 -50 588 -66 83 -6 191 -16 240 -21 223 -22 697
-32 965 -20 340 16 684 48 725 67 11 5 -166 -3 -265 -13 -36 -3 -62 -3 -59 1
4 4 127 18 275 31 375 35 954 112 1048 141 17 6 18 13 12 73 -10 110 -25 232
-36 311 -6 41 -21 168 -35 281 -13 114 -26 217 -29 230 -3 13 -13 87 -22 164
-9 77 -20 169 -24 205 -27 216 -40 325 -50 405 -6 50 -15 115 -20 145 -5 30
-14 100 -20 155 -6 55 -15 125 -20 155 -5 30 -14 100 -20 155 -6 55 -22 186
-36 290 -13 105 -31 249 -39 320 -9 72 -20 157 -25 190 -5 33 -18 141 -30 240
-11 99 -25 212 -30 250 -5 39 -19 147 -30 240 -12 94 -25 199 -30 235 -4 36
-16 131 -26 212 -17 142 -18 147 -43 157 -47 17 -458 138 -840 246 -394 111
-466 136 -482 167 -5 10 -21 52 -34 93 -14 41 -50 115 -80 164 -31 50 -62 108
-70 130 -24 70 -34 208 -25 342 17 224 12 418 -11 526 -11 53 -24 103 -29 112
-22 42 -101 253 -97 257 13 14 196 -75 323 -157 95 -62 121 -72 109 -41 -4 9
-13 42 -21 72 -22 86 -127 286 -201 384 -143 190 -347 367 -595 515 -93 55
-367 191 -387 191 -23 0 -10 19 38 55 45 33 304 162 359 179 36 12 26 23 -43
46 -205 68 -545 77 -930 24 -155 -22 -278 -47 -527 -110 -120 -30 -229 -54
-242 -54 -13 0 -75 22 -138 49 -333 143 -711 233 -1078 256 -58 4 -467 8 -910
10 -443 1 -836 6 -875 10 l-70 8 20 -22z m1747 -956 c-1 -28 -5 -85 -8 -128
-3 -44 -1 -83 4 -90 5 -7 13 -45 17 -86 8 -78 38 -161 58 -161 20 0 30 11 80
88 78 119 117 198 117 237 0 25 8 44 25 60 29 30 71 35 60 8 -3 -10 -9 -31
-12 -48 -13 -68 -146 -316 -201 -373 -7 -8 -9 -18 -6 -23 12 -21 -81 -89 -121
-89 -21 0 -29 20 -16 44 13 23 9 36 -26 100 -8 15 -16 33 -17 40 -1 6 -8 29
-14 51 -24 77 -32 111 -36 165 -3 30 -8 80 -11 110 -8 77 4 111 46 133 53 27
64 20 61 -38z m-487 35 c4 -6 0 -22 -9 -35 -9 -13 -16 -27 -16 -30 0 -3 20
-14 44 -25 24 -10 47 -23 50 -29 4 -6 9 -59 12 -118 4 -66 10 -111 17 -115 9
-6 9 -12 0 -28 -7 -11 -13 -34 -13 -52 0 -18 -7 -55 -15 -82 -8 -26 -12 -52
-10 -57 3 -4 1 -16 -4 -26 -5 -10 -12 -26 -15 -35 -3 -10 -12 -18 -21 -18 -13
0 -15 19 -15 120 l0 121 -52 -6 c-29 -4 -64 -11 -78 -15 -23 -8 -61 -18 -132
-34 -19 -4 -28 -13 -28 -26 0 -10 -5 -22 -10 -25 -6 -4 -20 -28 -31 -53 -35
-82 -57 -117 -70 -117 -23 0 -21 57 5 120 l25 60 -21 16 c-14 11 -17 18 -9 23
6 4 11 17 11 30 0 17 10 28 38 40 29 13 42 29 60 69 64 143 88 189 104 204 14
12 15 19 7 29 -9 11 -5 16 17 25 16 5 38 19 49 29 18 16 78 47 97 49 4 1 10
-4 13 -9z m-2223 -66 c-5 -87 22 -173 66 -217 67 -65 132 -38 306 128 49 47
96 85 105 85 27 0 15 -109 -21 -200 -17 -41 -31 -82 -32 -91 -1 -9 -9 -27 -18
-41 -9 -13 -21 -50 -28 -81 -11 -56 -51 -119 -65 -105 -7 7 -1 41 36 193 11
44 19 87 19 95 0 8 7 28 15 43 13 24 12 29 0 34 -16 5 -45 -11 -80 -44 -30
-29 -127 -91 -168 -108 -50 -21 -81 -11 -119 36 -20 25 -40 39 -54 39 -25 0
-25 1 -44 -105 -6 -33 -15 -80 -20 -105 -5 -25 -12 -57 -15 -72 -4 -21 -11
-28 -28 -28 -20 0 -22 5 -21 48 0 26 3 53 7 58 3 6 9 57 12 115 4 57 13 124
21 148 8 24 15 71 15 105 1 71 16 100 62 120 51 23 52 21 49 -50z m1186 43
c14 -11 16 -63 2 -72 -6 -4 -35 -1 -65 6 -84 19 -188 -3 -221 -46 -13 -18 -24
-40 -24 -51 0 -22 -23 -90 -33 -100 -4 -4 -7 -16 -7 -26 0 -21 26 -24 49 -5
24 20 89 35 161 37 92 3 90 4 90 -33 l0 -34 -130 -7 c-185 -9 -209 -22 -214
-116 -1 -16 -5 -32 -9 -36 -13 -13 -7 -52 9 -58 37 -14 141 -1 313 40 65 16
89 10 78 -18 -5 -14 -170 -68 -262 -86 -27 -5 -74 -10 -103 -11 -47 -2 -57 1
-79 25 -23 25 -24 32 -20 103 6 90 21 177 50 286 25 93 54 127 152 178 47 24
78 32 140 37 82 6 101 4 123 -13z m521 8 c15 -9 14 -62 -1 -68 -7 -3 -34 -2
-60 1 -26 2 -55 2 -64 -2 -16 -6 -15 -8 4 -22 26 -18 28 -54 8 -116 -8 -24
-17 -59 -21 -78 -4 -19 -11 -39 -15 -45 -4 -5 -10 -37 -14 -69 -4 -33 -12 -66
-18 -73 -6 -8 -9 -38 -6 -74 4 -57 3 -61 -20 -70 -31 -12 -34 -9 -37 43 -2 57
15 339 23 358 6 16 8 25 18 87 9 56 -4 61 -112 38 -84 -18 -109 -16 -86 7 7 7
12 22 12 34 0 34 24 46 107 53 95 7 268 5 282 -4z m3339 -22 c-3 -36 -6 -40
-78 -75 -41 -21 -84 -38 -95 -38 -17 1 -16 4 10 25 32 26 29 41 -6 30 -27 -9
-109 -83 -109 -100 0 -39 52 -100 146 -171 64 -47 74 -61 74 -99 0 -24 6 -35
25 -43 45 -21 31 -42 -26 -42 -38 0 -58 -6 -83 -25 -41 -31 -131 -72 -179 -80
-22 -5 -49 -2 -67 5 -52 21 -39 35 74 80 43 17 86 29 95 27 11 -3 7 -8 -14
-17 -29 -13 -29 -14 -7 -18 33 -5 46 2 77 42 18 24 25 42 20 55 -3 11 -44 48
-91 81 -46 34 -84 65 -84 70 0 5 -13 16 -30 25 -27 14 -30 20 -30 63 0 43 4
53 43 93 62 63 239 147 315 148 21 1 23 -3 20 -36z m-1319 13 c7 -8 11 -27 9
-43 -2 -23 -7 -27 -28 -25 -97 12 -130 13 -182 2 -59 -13 -98 -46 -98 -82 0
-7 -9 -39 -20 -71 -11 -31 -20 -63 -20 -72 0 -16 35 -21 44 -6 13 21 112 42
181 39 l70 -3 0 -30 0 -30 -132 -7 c-178 -8 -193 -17 -211 -117 -7 -40 -11
-80 -8 -87 10 -27 186 -12 315 26 48 14 68 16 78 8 28 -23 17 -30 -129 -73
-92 -27 -248 -49 -279 -40 -11 4 -19 13 -19 21 0 8 -5 14 -11 14 -8 0 -10 29
-5 98 12 202 42 330 90 380 33 35 119 88 164 102 48 15 178 12 191 -4z m1976
-3 c13 -17 10 -43 -5 -43 -5 0 -10 10 -12 23 -3 20 -9 22 -58 22 -47 0 -55 -3
-58 -20 -2 -16 4 -20 30 -22 80 -5 121 -14 109 -26 -8 -8 -14 -8 -23 1 -14 14
-121 15 -186 3 -46 -9 -79 -39 -88 -80 -10 -49 -27 -106 -36 -115 -4 -6 -8
-18 -8 -28 0 -22 36 -24 64 -3 19 15 55 21 164 29 l62 4 0 -31 0 -32 -104 -1
c-115 -2 -193 -22 -214 -54 -7 -11 -15 -54 -18 -95 l-6 -75 61 0 c69 0 179 15
262 36 68 17 66 17 66 0 0 -8 -12 -19 -26 -24 -14 -5 -42 -14 -61 -21 -112
-39 -280 -68 -315 -55 -8 3 -15 12 -15 20 0 8 -7 14 -15 14 -12 0 -15 14 -15
68 0 37 5 85 11 107 6 22 15 65 19 95 8 52 13 72 39 160 16 54 118 125 216
150 17 4 57 8 89 9 45 1 62 -3 71 -16z m-1429 -18 c139 -39 194 -76 194 -129
0 -41 -6 -48 -69 -85 -54 -32 -64 -36 -201 -86 -41 -15 -81 -33 -88 -40 -21
-19 -11 -26 238 -162 130 -71 150 -85 150 -104 0 -10 -7 -19 -15 -19 -35 0
-170 54 -288 115 -123 63 -153 71 -161 43 -30 -109 -38 -129 -54 -126 -19 4
-21 50 -7 139 7 42 5 48 -20 71 l-27 26 30 17 c26 16 31 25 36 74 3 31 6 61 5
66 0 6 -3 46 -5 90 l-5 80 42 28 c56 35 125 36 245 2z m337 -837 c12 -6 28
-17 36 -25 9 -9 24 -12 42 -8 39 9 37 -10 -3 -25 -18 -7 -50 -31 -70 -52 -29
-31 -43 -39 -65 -36 -49 5 -40 34 21 69 31 17 56 35 56 40 0 19 -44 31 -92 25
-192 -26 -477 -171 -646 -331 -83 -77 -102 -130 -60 -159 58 -41 318 12 542
110 43 19 84 33 90 31 14 -5 -123 -74 -239 -120 -299 -118 -533 -71 -429 86
63 96 231 231 379 305 54 26 207 83 260 95 41 10 157 7 178 -5z m470 -91 c17
-7 17 -9 -3 -38 -12 -16 -21 -31 -19 -32 2 -1 105 0 229 3 259 6 495 -1 509
-15 7 -7 -131 -10 -382 -10 l-392 0 -95 -62 c-52 -34 -105 -70 -117 -80 -29
-23 -35 -66 -10 -71 25 -5 162 61 214 104 36 29 99 64 118 64 15 0 1 -18 -27
-35 -44 -25 -110 -94 -103 -106 4 -5 15 -9 26 -9 20 0 142 58 264 125 71 39
105 51 105 36 0 -6 -30 -42 -68 -81 -37 -38 -62 -70 -56 -70 6 0 37 11 69 25
100 45 71 18 -36 -33 -57 -27 -111 -52 -119 -55 -8 -3 -66 -46 -129 -97 -145
-116 -214 -163 -305 -206 -87 -42 -165 -50 -193 -21 -17 18 -17 20 22 54 48
42 270 154 433 218 103 40 125 54 187 110 38 36 64 65 58 65 -5 0 -44 -16 -85
-35 -110 -50 -161 -62 -193 -45 -22 12 -32 12 -58 1 -89 -36 -122 -43 -150
-32 -15 6 -32 22 -37 35 l-9 24 -71 -24 c-130 -45 -170 -7 -88 82 50 54 95 81
111 65 8 -8 7 -11 -2 -11 -7 0 -37 -23 -67 -51 -60 -57 -70 -89 -28 -89 36 0
174 66 193 93 9 12 31 38 49 59 20 22 29 39 22 43 -6 4 -57 4 -113 1 -62 -3
-90 -2 -70 3 17 4 76 11 130 15 88 6 103 10 142 38 41 29 109 59 121 54 3 -2
13 -6 23 -9z m-253 -31 c0 -14 -58 -31 -69 -20 -9 8 30 34 51 34 10 0 18 -6
18 -14z m-1630 -657 c239 -6 455 -14 480 -18 40 -6 35 -8 -50 -15 -213 -16
-533 -84 -728 -152 -83 -30 -105 -42 -113 -61 -5 -13 -9 -28 -9 -33 0 -4 35
-11 78 -14 297 -22 368 -34 519 -87 146 -52 147 -52 56 -73 -135 -31 -156 -37
-147 -46 5 -4 45 -22 88 -39 192 -77 353 -206 417 -337 30 -61 34 -78 34 -149
0 -67 -5 -89 -27 -135 -47 -96 -167 -199 -302 -260 -241 -109 -538 -163 -1016
-183 l-55 -2 149 -81 149 -82 -104 -6 c-57 -3 -234 -8 -394 -11 -341 -7 -502
-17 -837 -50 -621 -62 -885 -57 -1151 20 -181 52 -347 162 -446 295 -14 19
-28 37 -31 40 -10 10 -31 46 -78 135 l-47 90 1 130 c0 103 5 145 22 200 63
208 210 332 507 428 192 63 629 178 840 222 109 23 117 27 65 36 -138 24 -787
-76 -1051 -162 -323 -105 -533 -265 -610 -468 -33 -86 -37 -224 -10 -331 54
-216 220 -466 402 -606 192 -148 413 -211 765 -221 231 -6 354 1 779 47 420
45 467 49 675 60 188 9 480 4 480 -9 0 -4 -38 -20 -85 -36 -47 -16 -85 -33
-85 -36 0 -4 33 -11 73 -17 39 -6 142 -21 227 -34 l155 -23 -125 -8 c-69 -4
-345 -27 -615 -52 -777 -71 -850 -76 -1215 -82 -365 -6 -509 2 -675 37 -451
94 -854 437 -988 840 -65 193 -70 414 -16 590 98 315 433 512 1044 614 442 73
1150 131 1779 144 388 8 654 6 1226 -9z m2792 -506 c187 -198 250 -534 156
-833 -137 -435 -526 -751 -1045 -850 -99 -18 -372 -44 -381 -35 -5 5 107 38
293 84 279 70 419 125 569 225 223 148 428 440 475 674 20 100 12 273 -19 382
-6 19 -21 80 -34 135 -14 55 -32 127 -40 160 -24 89 -25 95 -17 95 4 0 23 -17
43 -37z m-605 -73 c108 -50 205 -159 250 -280 39 -106 43 -127 43 -232 0 -91
-4 -119 -30 -198 -114 -350 -477 -568 -975 -586 l-130 -4 60 30 c38 19 109 39
188 55 196 39 355 103 511 205 156 102 241 223 267 379 25 148 -37 361 -147
507 -44 58 -118 129 -156 150 -16 8 -28 16 -28 18 0 10 91 -18 147 -44z
m-6537 -164 c0 -96 27 -404 45 -521 23 -145 52 -269 104 -442 17 -57 44 -147
60 -200 16 -54 32 -106 36 -115 10 -25 -6 -23 -70 8 -103 48 -136 114 -220
439 -15 55 -40 150 -56 210 -89 327 -97 445 -37 571 20 44 101 124 126 124 8
0 12 -22 12 -74z m7764 -98 c20 -88 20 -222 1 -364 -8 -60 -17 -118 -19 -129
-3 -11 -17 -68 -31 -127 -45 -191 -165 -498 -194 -498 -6 0 -11 1 -11 3 0 1
12 70 26 152 14 83 36 215 49 295 22 132 76 437 95 535 4 22 13 72 19 110 18
113 20 118 35 105 8 -6 21 -43 30 -82z m342 22 c234 -48 459 -121 512 -165 34
-28 48 -76 91 -305 49 -260 133 -973 171 -1450 11 -140 24 -310 30 -378 13
-163 14 -157 -6 -141 -21 17 -127 238 -149 309 -76 250 -90 364 -109 945 -18
520 -34 661 -94 815 -40 104 -62 122 -242 195 -63 26 -142 61 -174 78 -60 32
-160 116 -140 117 7 0 56 -9 110 -20z m-8526 -21 c-37 -29 -139 -80 -267 -132
-162 -67 -227 -114 -254 -185 -31 -81 -96 -468 -139 -832 -47 -394 -136 -909
-180 -1045 -26 -82 -25 -47 4 187 14 106 34 281 45 388 12 107 28 247 36 310
8 63 24 196 35 295 51 472 70 635 79 698 6 37 11 85 11 107 0 21 6 42 13 47
14 9 605 181 627 182 10 0 6 -7 -10 -20z m54 -514 c52 -68 82 -158 112 -333
48 -290 113 -405 269 -478 82 -39 166 -57 365 -79 181 -20 314 -43 333 -58 16
-14 53 -104 103 -256 35 -104 107 -262 160 -351 41 -68 101 -182 108 -207 6
-19 -7 -36 -81 -108 -102 -99 -196 -178 -269 -223 -51 -32 -123 -53 -299 -86
-201 -39 -329 -116 -361 -219 -8 -29 -24 -110 -35 -182 -21 -142 -46 -208
-118 -314 l-41 -60 -57 6 c-73 7 -195 29 -250 45 -39 11 -53 9 -202 -35 -88
-26 -164 -47 -169 -47 -6 0 -6 19 -1 48 5 26 18 124 29 217 11 94 25 204 30
245 6 41 19 147 30 235 26 213 74 602 99 800 11 88 25 237 31 330 6 94 15 217
20 275 42 445 42 448 90 670 21 98 57 200 70 200 4 0 20 -16 34 -35z m8424
-60 c13 -38 28 -110 33 -160 5 -49 14 -130 19 -180 5 -49 14 -106 19 -125 15
-51 28 -137 65 -435 9 -71 20 -161 26 -200 13 -89 65 -555 90 -795 11 -102 24
-228 30 -280 16 -144 29 -273 40 -400 6 -63 15 -164 20 -225 5 -60 10 -115 10
-121 0 -7 -66 11 -160 43 l-160 56 -73 -21 c-39 -12 -119 -29 -176 -38 l-104
-16 -18 23 c-10 13 -41 65 -69 116 -41 72 -55 112 -71 190 -71 353 -232 480
-681 539 l-127 17 26 46 c14 25 32 56 39 68 19 30 52 88 87 153 16 30 33 60
37 65 11 15 186 363 208 415 11 25 30 68 42 95 28 61 93 225 111 280 20 59 34
72 112 95 100 30 195 82 264 145 90 81 142 191 178 375 24 124 60 237 95 298
42 71 58 67 88 -23z m-7595 -533 c51 -38 105 -77 120 -87 25 -16 57 -62 57
-81 0 -11 -113 7 -156 26 -48 21 -76 57 -97 125 -8 28 -18 58 -22 68 -4 9 -4
17 0 17 4 0 48 -31 98 -68z m3592 -302 c195 -16 260 -34 317 -88 29 -27 53
-105 46 -156 -3 -32 40 -10 -478 -243 l-145 -65 -52 17 c-29 8 -74 30 -100 48
-26 19 -66 45 -87 60 -54 37 -156 67 -241 70 -69 2 -70 2 -66 -23 10 -72 84
-120 245 -160 64 -16 132 -34 152 -40 l36 -12 -6 -67 c-3 -36 -7 -97 -8 -136
l-3 -70 83 -1 c90 -1 87 0 96 -31 6 -19 2 -23 -31 -32 -55 -16 -89 -14 -168
10 -39 11 -98 24 -132 30 -58 8 -69 7 -135 -20 -171 -68 -548 -264 -535 -278
11 -11 367 -3 585 13 125 9 310 17 412 18 171 1 189 -1 232 -21 73 -33 98 -64
98 -117 0 -86 -75 -138 -228 -156 -93 -12 -218 -4 -422 24 -52 8 -98 12 -103
9 -4 -2 6 -22 23 -43 35 -44 18 -39 355 -104 l219 -42 9 -40 c5 -21 7 -88 4
-149 -3 -94 -7 -117 -29 -160 -27 -53 -99 -131 -130 -141 -11 -3 -24 -25 -34
-60 -8 -30 -21 -54 -28 -54 -41 0 -534 125 -661 168 -425 142 -897 400 -1201
656 -100 84 -331 315 -414 415 -66 78 -214 277 -231 308 -8 15 -30 55 -50 88
-86 146 -159 357 -159 462 l0 35 48 -7 c275 -41 348 -47 672 -52 301 -4 368
-2 660 21 179 15 403 38 498 52 96 14 176 23 179 20 7 -7 -28 -56 -100 -139
-32 -38 -62 -80 -68 -94 -20 -54 -8 -132 38 -234 l25 -57 104 -26 c109 -27
159 -32 184 -16 17 11 23 8 -104 45 -50 14 -95 30 -100 35 -34 34 -48 200 -21
262 17 43 77 123 119 161 45 40 107 67 153 67 22 0 57 7 77 15 19 8 59 19 88
24 74 12 369 13 513 1z m2407 -322 c-11 -35 -28 -92 -38 -128 -10 -36 -30 -87
-46 -113 -15 -26 -28 -50 -28 -52 0 -2 -22 -40 -50 -85 -27 -45 -50 -84 -50
-87 0 -8 -161 -246 -201 -297 -184 -232 -401 -401 -723 -566 -86 -44 -162 -80
-168 -80 -5 0 39 33 98 73 467 314 746 590 935 924 22 39 32 56 111 198 25 44
67 118 93 165 77 137 103 155 67 48z m-5610 -1242 c-8 -285 31 -553 125 -871
19 -66 38 -132 40 -148 3 -15 9 -30 14 -33 5 -3 9 -12 9 -21 0 -20 75 -174
116 -238 17 -28 60 -89 94 -135 162 -224 290 -433 290 -477 0 -12 48 -73 116
-145 24 -26 44 -51 44 -56 0 -6 -29 -20 -65 -32 -36 -12 -89 -37 -116 -56 -59
-40 -63 -40 -128 -15 -72 27 -165 92 -347 243 -89 73 -208 167 -264 208 -174
127 -225 198 -270 375 -40 159 -50 252 -50 486 0 229 8 310 47 474 45 188 109
338 196 454 39 53 135 151 147 151 4 0 4 -74 2 -164z m5991 102 c34 -35 69
-76 77 -93 8 -16 32 -61 53 -100 42 -76 111 -242 126 -303 6 -20 15 -55 20
-77 89 -340 46 -863 -90 -1101 -41 -73 -49 -78 -114 -69 l-55 6 34 41 c42 48
86 138 114 230 59 190 90 525 62 665 -5 26 -16 86 -25 133 -19 99 -85 265
-105 265 -10 0 -20 -37 -36 -130 -50 -290 -129 -503 -257 -695 -85 -127 -217
-275 -217 -244 0 3 6 20 14 37 7 18 23 57 34 87 11 30 32 87 47 125 15 39 33
90 41 115 8 25 19 54 24 65 16 35 90 267 111 345 41 160 50 242 56 503 4 152
10 257 15 257 6 0 38 -28 71 -62z m-6524 -5 c6 -21 17 -60 26 -88 20 -68 18
-156 -5 -240 -40 -139 -50 -182 -76 -315 -39 -204 -41 -213 -59 -258 -15 -36
-69 -92 -79 -81 -2 2 -14 27 -26 54 -13 31 -46 72 -83 108 l-61 58 18 52 c10
28 49 96 86 152 37 55 72 109 78 121 20 37 50 167 56 244 4 41 12 91 18 110
13 42 68 119 85 120 7 0 17 -17 22 -37z m1603 -273 c197 -159 639 -362 1164
-535 211 -69 468 -138 614 -164 l95 -17 3 -322 2 -321 -22 -15 c-24 -15 -131
-11 -358 15 -657 75 -1113 300 -1322 655 -19 32 -56 92 -82 132 -72 111 -131
251 -155 370 -11 53 -16 252 -6 252 3 0 33 -23 67 -50z m-403 -222 c35 -134
99 -337 111 -353 4 -5 11 -21 15 -35 4 -14 27 -67 51 -118 24 -51 44 -97 44
-102 0 -6 3 -10 8 -10 4 0 13 -14 21 -32 18 -39 110 -176 165 -243 213 -261
511 -453 891 -575 111 -35 290 -80 320 -80 30 0 7 14 -87 53 -62 25 -110 54
-163 99 -41 35 -72 64 -67 66 5 1 127 -27 273 -63 145 -36 273 -65 285 -65 11
0 23 -3 27 -6 3 -3 -13 -36 -36 -72 -58 -93 -98 -219 -112 -357 -3 -27 -9 -77
-14 -110 -32 -216 -40 -309 -41 -512 0 -87 -3 -113 -13 -113 -8 0 -65 28 -128
61 -343 185 -678 415 -908 624 -50 46 -173 186 -167 192 2 2 36 -2 75 -8 58
-10 76 -17 88 -36 42 -63 581 -346 718 -377 39 -9 23 3 -67 49 -146 75 -512
332 -715 501 -401 335 -651 702 -714 1049 -16 90 -16 300 0 390 11 60 74 274
88 298 12 20 23 -3 52 -115z m6669 -294 c118 -47 260 -123 265 -141 3 -10 8
-35 12 -55 5 -31 3 -38 -10 -38 -9 0 -74 27 -144 59 -201 93 -239 102 -413 99
-202 -4 -207 7 -26 60 172 49 224 52 316 16z m-2405 -980 c9 -3 17 -10 17 -15
0 -6 -20 -7 -52 -3 -37 5 -49 4 -44 -5 9 -14 -9 -14 -33 1 -18 11 -18 13 -3
25 16 12 65 11 115 -3z m-28 -64 c-11 -5 -29 -9 -40 -9 -17 -1 -17 1 -5 9 8 5
26 9 40 9 23 0 23 -1 5 -9z m-45 -40 c-20 -13 -33 -13 -25 0 3 6 14 10 23 10
15 0 15 -2 2 -10z m95 -10 c3 -6 -1 -7 -9 -4 -18 7 -21 14 -7 14 6 0 13 -4 16
-10z m-150 -50 c8 -13 -35 -13 -55 0 -11 7 -7 10 17 10 17 0 35 -4 38 -10z
m245 -217 c0 -17 -19 -35 -29 -29 -18 12 -12 36 9 36 11 0 20 -3 20 -7z m-39
-74 c11 -5 17 -14 14 -20 -4 -5 1 -12 10 -15 13 -6 14 -8 3 -15 -20 -13 -38
-11 -32 4 3 8 -2 20 -11 27 -15 12 -20 30 -9 30 3 0 14 -5 25 -11z m853 -128
c64 -53 -52 -230 -341 -526 -91 -93 -133 -126 -133 -105 0 5 5 10 11 10 5 0 7
5 4 10 -3 6 0 10 7 10 21 0 73 52 92 92 11 23 27 39 43 43 16 4 23 11 19 20
-3 9 1 15 9 15 8 0 24 8 35 17 21 19 27 43 9 43 -6 0 -17 7 -25 15 -9 8 -25
15 -37 15 -17 0 -18 3 -9 12 10 10 17 10 33 0 25 -16 32 -11 23 13 -5 13 -14
15 -35 11 -29 -5 -37 10 -14 26 13 9 14 69 2 86 -17 23 -38 14 -31 -13 5 -21
3 -25 -15 -25 -27 0 -27 26 -1 60 11 14 20 33 20 42 0 9 24 42 53 73 46 49 58
56 107 64 71 12 154 8 174 -8z m-814 -1 c-8 -5 -19 -10 -25 -10 -5 0 -3 5 5
10 8 5 20 10 25 10 6 0 3 -5 -5 -10z m-10 -40 c0 -5 -4 -10 -10 -10 -5 0 -10
5 -10 10 0 6 5 10 10 10 6 0 10 -4 10 -10z m151 -76 c12 -14 11 -16 -5 -13
-11 2 -21 10 -24 17 -5 17 13 15 29 -4z m317 -136 c-3 -7 -11 -13 -18 -13 -7
0 -15 6 -17 13 -3 7 4 12 17 12 13 0 20 -5 18 -12z m3 -106 c21 -2 26 -8 22
-22 -4 -13 -16 -19 -49 -22 -31 -2 -44 1 -44 9 0 7 10 13 23 14 l22 0 -22 9
c-28 11 -28 14 -5 52 l17 30 5 -34 c4 -27 10 -34 31 -36z m-282 -31 c9 -6 10
-10 2 -16 -15 -8 -41 1 -41 15 0 12 20 13 39 1z m126 -41 c3 -5 -1 -10 -9 -10
-8 0 -18 5 -21 10 -3 6 1 10 9 10 8 0 18 -4 21 -10z m-30 -100 c3 -6 -1 -7 -9
-4 -18 7 -21 14 -7 14 6 0 13 -4 16 -10z m-3521 -169 c61 -32 166 -87 234
-121 67 -35 121 -64 119 -66 -2 -2 -79 5 -172 16 -94 11 -222 24 -285 30 -156
15 -404 50 -411 58 -4 4 -9 32 -13 62 l-6 55 163 1 c89 1 176 6 192 12 51 18
64 14 179 -47z m3566 29 c-24 -15 -36 -11 -14 4 10 8 21 12 24 10 2 -3 -2 -9
-10 -14z m390 -40 c-8 -5 -19 -10 -25 -10 -5 0 -3 5 5 10 8 5 20 10 25 10 6 0
3 -5 -5 -10z m-80 -59 c0 -5 -7 -12 -16 -15 -14 -5 -15 -4 -4 9 14 17 20 19
20 6z m198 -16 c2 -2 -33 -6 -78 -10 -45 -4 -84 -4 -87 -1 -4 3 11 6 33 7 21
0 48 4 59 9 17 7 62 4 73 -5z m-344 -20 c-10 -8 -26 -14 -34 -15 -8 0 -4 6 10
14 34 19 48 20 24 1z m119 -2 c-7 -2 -21 -2 -30 0 -10 3 -4 5 12 5 17 0 24 -2
18 -5z m-2700 -200 c-13 -2 -35 -2 -50 0 -16 2 -5 4 22 4 28 0 40 -2 28 -4z
m184 -10 c-20 -2 -52 -2 -70 0 -17 2 0 4 38 4 39 0 53 -2 32 -4z m2886 -50
c-7 -2 -21 -2 -30 0 -10 3 -4 5 12 5 17 0 24 -2 18 -5z m340 0 c-7 -2 -19 -2
-25 0 -7 3 -2 5 12 5 14 0 19 -2 13 -5z m-3563 -89 c0 -2 -7 -4 -15 -4 -8 0
-15 4 -15 10 0 5 7 7 15 4 8 -4 15 -8 15 -10z m-134 -109 c-8 -8 -22 -15 -31
-15 -23 0 4 29 28 30 16 0 17 -2 3 -15z m-41 -34 c10 -18 -15 -22 -37 -7 l-22
16 26 0 c15 0 29 -4 33 -9z m-63 -23 c0 -7 2 -17 2 -23 1 -5 5 -16 9 -22 5 -8
3 -13 -5 -13 -14 0 -40 55 -30 64 9 10 22 6 24 -6z m238 -98 c-80 -8 -179 -36
-203 -58 -9 -8 -20 -13 -23 -9 -22 22 144 76 231 75 l60 -1 -65 -7z m636 -41
c11 0 14 -3 6 -6 -18 -7 -73 17 -66 29 3 5 13 3 23 -6 10 -9 26 -16 37 -17z
m-149 -76 c-2 -21 -4 -6 -4 32 0 39 2 55 4 38 2 -18 2 -50 0 -70z m-337 43 c0
-6 -7 -1 -15 10 -8 10 -15 23 -15 28 0 6 7 1 15 -10 8 -10 15 -23 15 -28z
m558 17 c-10 -2 -26 -2 -35 0 -10 3 -2 5 17 5 19 0 27 -2 18 -5z m445 0 c-35
-2 -91 -2 -125 0 -35 2 -7 3 62 3 69 0 97 -1 63 -3z m-265 -10 c-26 -2 -71 -2
-100 0 -29 2 -8 3 47 3 55 0 79 -1 53 -3z m433 -9 c83 -23 112 -57 117 -137 3
-41 -1 -75 -11 -97 -16 -41 -96 -144 -104 -136 -3 3 7 19 21 37 47 56 76 124
76 179 0 92 -37 131 -150 156 -30 7 -44 13 -31 13 14 1 50 -6 82 -15z m2189
-4 c0 -5 -4 -10 -10 -10 -5 0 -10 5 -10 10 0 6 5 10 10 10 6 0 10 -4 10 -10z
m-3690 -52 c0 -24 -39 16 -40 41 0 9 7 6 20 -9 11 -13 20 -27 20 -32z m367
-20 c-3 -8 -6 -5 -6 6 -1 11 2 17 5 13 3 -3 4 -12 1 -19z m3951 -12 c9 -9
-601 -397 -868 -551 -686 -397 -1759 -922 -2440 -1194 -200 -80 -468 -172
-558 -191 -170 -37 -641 114 -1367 438 -310 138 -488 222 -482 228 2 2 37 0
78 -6 41 -6 126 -14 189 -19 l115 -9 170 -80 c244 -113 474 -206 675 -273 228
-75 356 -102 490 -102 94 0 118 4 225 37 389 121 971 379 1790 791 650 327
1164 615 1511 845 73 48 137 89 143 91 14 5 324 0 329 -5z m-4603 -16 c3 -5
-1 -10 -10 -10 -9 0 -13 5 -10 10 3 6 8 10 10 10 2 0 7 -4 10 -10z m92 -6 c-3
-3 -12 -4 -19 -1 -8 3 -5 6 6 6 11 1 17 -2 13 -5z m1448 -4 c-3 -5 -16 -10
-28 -10 -18 0 -19 2 -7 10 20 13 43 13 35 0z m-85 -30 c-8 -5 -19 -10 -25 -10
-5 0 -3 5 5 10 8 5 20 10 25 10 6 0 3 -5 -5 -10z m100 0 c0 -20 -24 -100 -31
-100 -8 0 1 52 13 67 5 7 5 14 -2 18 -15 9 -12 25 5 25 8 0 15 -4 15 -10z
m-1617 -80 c3 -11 2 -18 -1 -17 -4 2 -16 7 -27 11 -16 6 -17 9 -5 16 22 14 27
12 33 -10z m777 1 c0 -5 3 -17 7 -27 4 -11 3 -15 -4 -11 -14 9 -24 47 -12 47
5 0 9 -4 9 -9z m-560 -23 c0 -7 -15 -38 -33 -69 l-32 -57 -30 16 c-33 17 -54
40 -55 60 0 6 5 12 10 12 6 0 10 -5 10 -12 0 -17 31 -48 49 -48 10 0 26 22 41
55 24 52 40 70 40 43z m1356 -34 c-4 -9 -9 -15 -11 -12 -3 3 -3 13 1 22 4 9 9
15 11 12 3 -3 3 -13 -1 -22z m1359 -10 c-33 -27 -176 -124 -214 -144 -23 -12
-23 -11 -16 16 4 16 9 37 11 48 5 26 1 24 116 67 122 45 145 48 103 13z
m-2990 -69 c-26 -38 -49 -81 -52 -97 -5 -26 -22 -36 -36 -22 -12 12 78 164
112 191 30 23 21 -4 -24 -72z m505 48 c0 -7 -4 -13 -10 -13 -5 0 -10 12 -10
28 0 21 2 24 10 12 5 -8 10 -21 10 -27z m347 5 c-3 -8 -6 -5 -6 6 -1 11 2 17
5 13 3 -3 4 -12 1 -19z m1029 -93 c-9 -9 -16 -13 -16 -8 0 12 22 34 28 28 2
-2 -3 -11 -12 -20z m-1409 -31 c-3 -3 -12 -4 -19 -1 -8 3 -5 6 6 6 11 1 17 -2
13 -5z m1003 -1 c0 -5 -5 -15 -10 -23 -8 -12 -10 -11 -10 8 0 12 5 22 10 22 6
0 10 -3 10 -7z m360 -1 c0 -4 -10 -13 -22 -21 -23 -14 -23 -14 -4 8 20 22 26
25 26 13z m-1283 -8 c-3 -3 -12 -4 -19 -1 -8 3 -5 6 6 6 11 1 17 -2 13 -5z
m1233 -29 c0 -2 -10 -9 -22 -15 -22 -11 -22 -10 -4 4 21 17 26 19 26 11z m435
-25 c-3 -5 -10 -10 -16 -10 -5 0 -9 5 -9 10 0 6 7 10 16 10 8 0 12 -4 9 -10z
m-5601 -32 c10 -10 7 -16 -18 -30 -17 -9 -39 -20 -48 -24 -27 -10 -21 -24 10
-25 16 -1 20 -3 10 -6 -10 -2 -18 -11 -18 -19 0 -16 -26 -19 -35 -4 -3 6 -19
10 -36 10 -43 0 -41 36 3 45 31 7 89 42 96 58 5 11 21 9 36 -5z m3486 -3 c0
-2 -18 -24 -41 -49 -53 -57 -107 -82 -146 -67 l-28 11 32 -6 c17 -3 41 0 53 6
35 19 100 81 100 96 0 8 7 14 15 14 8 0 15 -2 15 -5z m2150 -24 c0 -7 -49 -31
-62 -31 -5 0 -1 11 7 24 11 16 22 22 35 19 11 -3 20 -8 20 -12z m-1646 -47
c10 -25 -1 -29 -14 -5 -6 12 -7 21 -1 21 5 0 12 -7 15 -16z m1696 -3 c0 -18
-18 -31 -43 -31 -6 0 -3 6 8 13 10 8 15 19 11 25 -4 7 -1 12 8 12 9 0 16 -8
16 -19z m-840 -44 c0 -10 -4 -15 -10 -12 -5 3 -10 18 -10 33 0 21 2 24 10 12
5 -8 10 -23 10 -33z m-4821 14 c8 -5 9 -11 3 -15 -13 -8 -42 3 -42 15 0 11 21
11 39 0z m5591 -42 c29 -33 39 -59 22 -59 -10 0 -8 -42 2 -58 4 -7 1 -24 -8
-37 -9 -13 -16 -31 -16 -40 0 -9 -9 -15 -25 -15 -14 0 -25 5 -25 10 0 13 -30
13 -50 0 -13 -8 -13 -11 -1 -19 11 -7 10 -11 -5 -20 -18 -11 -18 -12 -1 -25
36 -28 -2 -25 -58 4 -31 17 -63 30 -70 30 -7 0 -15 6 -18 13 -3 9 -18 6 -58
-10 -30 -13 -68 -23 -84 -22 -23 1 -18 4 25 16 66 18 182 92 198 128 9 19 9
25 0 25 -19 0 25 29 45 30 19 0 23 15 6 26 -8 4 -2 12 14 21 16 8 24 19 21 27
-4 10 3 13 25 11 21 -1 41 -13 61 -36z m-6330 1 c8 -5 11 -10 5 -10 -5 0 -17
5 -25 10 -8 5 -10 10 -5 10 6 0 17 -5 25 -10z m3988 -28 c2 -7 -2 -10 -12 -6
-9 3 -16 11 -16 16 0 13 23 5 28 -10z m-682 -36 c80 -68 157 -96 294 -106
l105 -7 -81 -1 c-100 -2 -220 26 -287 68 -27 17 -52 30 -56 30 -10 0 -51 35
-51 44 0 17 41 2 76 -28z m-148 -8 c5 -18 8 -35 6 -38 -1 -3 -23 -4 -48 -2
-40 4 -46 7 -46 26 0 14 9 27 23 34 40 19 56 14 65 -20z m3242 12 c0 -5 -7
-10 -15 -10 -8 0 -15 5 -15 10 0 6 7 10 15 10 8 0 15 -4 15 -10z m-2365 -10
c3 -5 1 -10 -4 -10 -6 0 -11 5 -11 10 0 6 2 10 4 10 3 0 8 -4 11 -10z m-140
-20 c-3 -5 -12 -10 -18 -10 -7 0 -6 4 3 10 19 12 23 12 15 0z m245 -63 c0 -9
-56 28 -65 43 -3 6 10 0 29 -13 19 -12 35 -26 36 -30z m-982 10 c2 -10 -3 -17
-11 -17 -18 0 -39 24 -30 34 12 12 38 2 41 -17z m667 4 c-13 -11 -74 -31 -94
-30 -9 0 4 8 29 19 49 20 80 25 65 11z m-2055 -18 c21 -18 27 -53 10 -53 -6 0
-15 11 -20 25 -5 14 -17 25 -25 25 -9 0 -13 5 -10 10 9 14 22 12 45 -7z m75 7
c3 -5 1 -10 -4 -10 -6 0 -11 5 -11 10 0 6 2 10 4 10 3 0 8 -4 11 -10z m965
-15 c-13 -16 -50 -21 -50 -7 0 15 13 22 38 22 21 0 22 -2 12 -15z m-650 -22
c-2 -30 -70 -71 -70 -43 0 6 7 10 15 10 8 0 19 9 25 20 10 19 30 28 30 13z
m915 -15 c28 -13 33 -28 9 -28 -21 0 -54 18 -54 30 0 13 14 13 45 -2z m-500
-18 c-3 -5 -13 -10 -21 -10 -8 0 -14 5 -14 10 0 6 9 10 21 10 11 0 17 -4 14
-10z m685 -5 c0 -8 -4 -15 -10 -15 -5 0 -10 7 -10 15 0 8 5 15 10 15 6 0 10
-7 10 -15z m2507 -21 c-3 -3 -12 -4 -19 -1 -8 3 -5 6 6 6 11 1 17 -2 13 -5z
m317 -3 c29 -11 4 -22 -33 -15 -17 4 -28 10 -25 15 6 11 31 11 58 0z m-3665
-22 c-15 -9 -32 -2 -24 11 3 5 13 6 21 3 12 -4 13 -8 3 -14z m3587 -15 c8 3
14 1 14 -4 0 -6 -4 -10 -10 -10 -5 0 -10 -9 -10 -20 0 -11 -2 -20 -4 -20 -2 0
-13 -3 -23 -7 -16 -6 -16 -5 -4 10 12 15 11 17 -6 17 -27 0 -34 9 -22 31 8 16
14 17 30 8 11 -6 27 -8 35 -5z m-231 -4 c-3 -5 -14 -10 -23 -9 -14 0 -13 2 3
9 27 11 27 11 20 0z m120 -110 c3 -5 2 -10 -4 -10 -5 0 -13 5 -16 10 -3 6 -2
10 4 10 5 0 13 -4 16 -10z"/>
<path d="M8987 14903 c-4 -3 -7 -13 -7 -21 0 -8 -10 -29 -23 -46 -24 -32 -77
-124 -77 -134 0 -6 174 6 209 15 22 5 23 9 19 74 -3 55 -8 73 -28 94 -23 24
-77 35 -93 18z"/>
<path d="M12418 15013 c7 -3 16 -2 19 1 4 3 -2 6 -13 5 -11 0 -14 -3 -6 -6z"/>
<path d="M12420 14773 c14 -3 29 -9 35 -14 15 -15 55 -11 55 6 0 12 -12 15
-57 14 -32 -1 -47 -4 -33 -6z"/>
<path d="M12508 14531 c-49 -14 -85 -31 -65 -31 22 0 127 35 127 42 0 4 -1 7
-2 7 -2 -1 -29 -9 -60 -18z"/>
<path d="M10938 14968 c-20 -7 -28 -17 -28 -33 0 -29 16 -41 35 -25 24 20 48
4 42 -28 -11 -55 -25 -108 -32 -126 -7 -16 -5 -18 21 -14 28 5 87 28 191 75
56 25 87 60 77 86 -6 18 -55 39 -142 61 -67 18 -124 19 -164 4z"/>
<path d="M11883 14057 c-22 -10 -31 -27 -15 -27 12 0 48 28 42 33 -3 2 -15 0
-27 -6z"/>
<path d="M11789 13984 l-24 -26 38 18 c37 18 49 34 24 34 -8 0 -24 -12 -38
-26z"/>
<path d="M11695 13595 c-191 -93 -239 -125 -218 -146 24 -24 158 43 343 169
114 78 108 72 84 71 -10 0 -104 -42 -209 -94z"/>
<path d="M12285 7110 c-3 -5 -19 -10 -36 -10 -34 0 -39 -15 -6 -24 32 -8 49
-7 42 3 -3 5 5 17 17 25 18 13 19 16 6 16 -9 0 -20 -4 -23 -10z"/>
<path d="M12230 7030 c0 -5 5 -10 10 -10 6 0 10 5 10 10 0 6 -4 10 -10 10 -5
0 -10 -4 -10 -10z"/>
<path d="M10893 5078 c-9 -10 -13 -21 -10 -25 10 -9 57 18 57 32 0 18 -28 14
-47 -7z"/>
<path d="M10829 5013 c-9 -10 -25 -23 -35 -30 -19 -11 -19 -11 1 -18 11 -3 28
-11 37 -16 44 -23 84 -1 46 25 l-22 16 21 0 c30 0 38 17 14 29 -28 15 -44 14
-62 -6z"/>
<path d="M5260 14568 c-36 -24 -41 -41 -68 -223 -77 -498 -66 -956 29 -1236
11 -30 19 -60 19 -65 0 -6 -34 -21 -76 -34 -41 -13 -77 -28 -80 -32 -3 -4 -18
-8 -34 -8 -16 0 -32 -4 -35 -10 -3 -5 -17 -10 -31 -10 -13 0 -24 -4 -24 -10 0
-5 -13 -10 -30 -10 -16 0 -30 -4 -30 -9 0 -5 -28 -14 -62 -20 -35 -6 -64 -15
-66 -21 -2 -5 -17 -10 -33 -10 -16 0 -29 -4 -29 -10 0 -5 -12 -10 -26 -10 -25
0 -222 -62 -609 -191 -99 -33 -188 -67 -197 -77 -23 -23 -29 -56 -68 -402 -6
-52 -17 -138 -25 -190 -20 -125 -45 -334 -100 -830 -8 -74 -22 -180 -30 -235
-8 -55 -19 -138 -24 -185 -6 -47 -36 -283 -66 -525 -31 -242 -61 -494 -66
-560 -4 -66 -11 -133 -15 -150 -3 -16 -10 -73 -15 -125 -14 -144 -27 -257 -39
-345 -6 -44 -15 -118 -21 -165 -10 -90 -20 -156 -37 -255 -6 -33 -21 -141 -32
-240 -12 -99 -25 -207 -30 -240 -4 -33 -5 -63 -2 -67 15 -15 234 -118 253
-118 15 0 19 7 19 38 0 34 16 177 54 477 21 166 71 585 96 795 11 96 24 207
30 245 6 39 17 131 25 206 8 75 20 172 26 215 5 44 21 169 34 279 46 375 86
700 115 935 15 129 42 350 60 490 65 531 91 739 107 880 9 80 17 146 18 147 1
1 145 48 321 103 175 56 387 123 469 149 83 27 245 79 360 116 116 37 213 70
217 74 4 3 1 18 -6 33 -8 14 -19 43 -26 65 -6 21 -15 47 -20 58 -23 54 -47
208 -61 398 -14 200 4 503 50 825 8 60 7 61 -63 91 -61 27 -85 26 -126 -1z"/>
<path d="M14516 12781 c5 -5 61 -23 124 -41 101 -28 269 -85 278 -94 11 -12
96 -547 132 -836 11 -85 24 -186 30 -225 14 -97 55 -445 91 -780 17 -154 34
-314 39 -355 4 -41 15 -147 24 -235 29 -287 36 -359 46 -430 5 -38 14 -119 20
-180 6 -60 18 -168 26 -240 8 -71 26 -224 40 -340 51 -443 106 -830 119 -843
8 -8 250 39 323 63 8 3 1 15 -21 35 -48 42 -79 129 -83 233 -2 45 -111 942
-244 1992 -132 1051 -238 1925 -235 1942 8 44 -10 105 -38 131 -25 24 -319
124 -522 178 -134 35 -166 41 -149 25z"/>
<path d="M14972 11990 c0 -19 2 -27 5 -17 2 9 2 25 0 35 -3 9 -5 1 -5 -18z"/>
<path d="M14993 11855 c0 -27 2 -38 4 -22 2 15 2 37 0 50 -2 12 -4 0 -4 -28z"/>
<path d="M15007 11740 c-3 -11 -1 -33 3 -48 7 -23 8 -21 9 21 1 50 -3 60 -12
27z"/>
<path d="M15033 11545 c0 -33 2 -45 4 -27 2 18 2 45 0 60 -2 15 -4 0 -4 -33z"/>
<path d="M15051 11381 c0 -53 3 -81 8 -75 6 5 6 40 2 84 l-8 75 -2 -84z"/>
<path d="M15073 11200 c0 -47 2 -66 4 -42 2 23 2 61 0 85 -2 23 -4 4 -4 -43z"/>
<path d="M15091 11028 c-1 -46 3 -78 9 -78 12 0 12 59 1 115 -8 35 -9 31 -10
-37z"/>
<path d="M15111 10858 c0 -53 3 -88 9 -88 11 0 11 40 0 120 -7 53 -7 52 -9
-32z"/>
<path d="M15130 10611 c0 -22 5 -43 10 -46 6 -4 10 12 10 39 0 25 -4 46 -10
46 -5 0 -10 -18 -10 -39z"/>
<path d="M15153 10495 c0 -22 2 -30 4 -17 2 12 2 30 0 40 -3 9 -5 -1 -4 -23z"/>
<path d="M15166 10328 c7 -104 9 -116 20 -105 10 9 -7 207 -18 207 -5 0 -6
-41 -2 -102z"/>
<path d="M15194 9679 c0 -250 -1 -488 -3 -529 -3 -74 20 -359 40 -475 5 -33
10 -80 11 -105 0 -25 4 -52 9 -61 4 -9 11 -61 14 -115 4 -55 10 -112 14 -129
4 -16 7 -49 6 -73 -1 -39 1 -43 19 -38 12 3 49 8 83 12 57 6 62 8 58 28 -5 22
-21 116 -30 176 -3 19 -9 62 -14 95 -5 33 -15 101 -21 150 -10 85 -26 213 -35
280 -3 17 -11 89 -20 160 -8 72 -24 204 -35 295 -10 91 -24 212 -30 270 -6 58
-17 157 -25 220 -8 63 -18 149 -21 190 -15 176 -21 75 -20 -351z"/>
<path d="M17062 8538 c-5 -7 -64 -123 -131 -258 -67 -135 -133 -265 -147 -290
-41 -71 -185 -300 -198 -313 -6 -7 -15 -20 -21 -29 -52 -82 -234 -317 -318
-411 -47 -52 -67 -81 -60 -88 13 -13 41 -1 48 22 4 10 10 19 15 19 13 0 123
118 199 215 39 50 79 99 88 109 20 25 135 193 148 217 5 11 13 19 17 19 5 0 8
6 8 13 0 8 11 24 25 37 14 13 25 28 25 33 0 5 8 21 18 35 62 89 223 418 237
483 4 19 11 39 15 44 4 6 17 35 28 65 11 30 23 63 27 73 8 20 -8 23 -23 5z"/>
<path d="M2250 8524 c0 -16 70 -164 203 -429 113 -227 152 -300 182 -345 42
-61 142 -268 148 -305 15 -93 48 -219 59 -226 19 -12 10 -76 -14 -105 -12 -13
-34 -31 -48 -38 -14 -7 -51 -27 -84 -45 -32 -17 -62 -31 -67 -31 -4 0 -36 -13
-71 -29 -35 -16 -101 -43 -148 -61 -98 -37 -128 -50 -188 -79 -24 -11 -52 -21
-62 -21 -11 0 -21 -4 -24 -9 -3 -5 -20 -11 -38 -14 -51 -8 -91 -18 -113 -26
-11 -4 -72 -24 -135 -45 -133 -44 -291 -104 -304 -117 -32 -30 29 -16 234 51
30 10 96 30 145 45 50 14 152 46 228 70 75 25 140 45 142 45 3 0 4 -6 3 -12
-2 -8 9 -14 27 -16 21 -2 26 0 16 6 -11 8 -10 12 5 21 16 9 14 10 -11 5 -53
-12 -21 5 76 40 157 56 352 146 462 214 23 14 29 15 36 3 7 -10 10 -10 16 -1
4 7 2 16 -6 21 -11 6 -11 11 -1 21 6 6 12 33 12 59 0 29 5 49 13 52 6 3 -8 4
-32 4 -43 -2 -43 -2 -57 43 -11 39 -11 46 2 53 8 4 12 12 9 18 -4 5 3 9 14 9
12 0 26 -9 33 -20 8 -12 23 -20 38 -20 l25 0 -25 20 c-14 11 -38 24 -55 28
-20 6 -32 16 -36 33 -11 46 -21 69 -30 69 -5 0 -9 11 -9 24 0 13 -4 26 -8 28
-10 4 -72 130 -72 146 0 7 -4 12 -10 12 -5 0 -10 5 -10 11 0 10 -100 213 -218
444 -17 33 -50 101 -74 150 -71 149 -141 264 -160 265 -10 0 -18 -7 -18 -16z"/>
<path d="M11673 7959 c11 -7 23 -7 35 0 14 9 11 10 -18 10 -29 0 -32 -1 -17
-10z"/>
<path d="M11678 7853 c7 -3 16 -2 19 1 4 3 -2 6 -13 5 -11 0 -14 -3 -6 -6z"/>
<path d="M11685 7770 c-3 -5 1 -10 10 -10 9 0 13 5 10 10 -3 6 -8 10 -10 10
-2 0 -7 -4 -10 -10z"/>
<path d="M11690 7730 l-25 -7 28 -12 c36 -14 37 -14 37 3 0 20 -10 24 -40 16z"/>
<path d="M11697 7656 c-4 -10 -1 -13 8 -9 8 3 12 9 9 14 -7 12 -11 11 -17 -5z"/>
<path d="M2765 7650 c3 -5 10 -10 16 -10 5 0 9 5 9 10 0 6 -7 10 -16 10 -8 0
-12 -4 -9 -10z"/>
<path d="M11710 7620 c0 -6 8 -20 18 -30 17 -19 21 -19 50 -4 42 20 49 34 18
34 -14 0 -26 -4 -26 -10 0 -5 -7 -10 -16 -10 -14 0 -14 3 -4 15 11 13 8 15
-14 15 -14 0 -26 -5 -26 -10z"/>
<path d="M15455 7604 c-38 -8 -104 -30 -145 -48 -103 -45 -171 -66 -216 -66
-62 0 -109 -18 -165 -61 -49 -39 -51 -43 -46 -80 3 -21 25 -71 49 -111 49 -80
68 -127 68 -167 1 -35 60 -114 101 -134 19 -8 51 -19 72 -22 l38 -7 -8 78 c-4
44 -8 122 -8 174 0 86 3 101 32 163 31 65 35 69 99 99 37 17 88 33 114 36 41
4 49 1 64 -19 35 -51 14 -174 -64 -370 -85 -212 -165 -361 -241 -448 -49 -55
-53 -96 -12 -112 l28 -10 -34 -16 c-43 -21 -46 -32 -26 -93 24 -72 49 -76 114
-18 27 24 66 49 87 56 42 13 191 27 462 41 197 11 234 22 267 83 17 33 18 43
8 91 -15 73 -52 146 -85 170 l-27 20 -35 -31 c-55 -48 -113 -79 -252 -131 -71
-26 -139 -51 -151 -55 -17 -6 -11 8 34 76 70 106 175 320 207 423 120 385 3
559 -329 489z m39 -954 c-24 -39 -62 -80 -76 -80 -11 0 2 19 56 78 37 40 42
41 20 2z"/>
<path d="M2790 7600 c0 -5 7 -10 16 -10 8 0 12 5 9 10 -3 6 -10 10 -16 10 -5
0 -9 -4 -9 -10z"/>
<path d="M2820 7540 c0 -22 21 -35 42 -27 8 4 4 8 -10 13 -14 4 -21 12 -18 20
3 8 1 14 -4 14 -6 0 -10 -9 -10 -20z"/>
<path d="M11840 7539 c0 -4 6 -10 13 -13 8 -3 6 -9 -7 -20 -17 -13 -17 -16 -4
-16 9 0 18 -6 21 -12 4 -10 7 -10 18 0 11 10 10 12 -4 12 -24 0 -21 17 4 23
12 3 18 10 15 15 -7 12 -56 22 -56 11z"/>
<path d="M11760 7521 c0 -18 18 -21 30 -6 10 13 9 15 -9 15 -11 0 -21 -4 -21
-9z"/>
<path d="M11960 7520 c0 -5 6 -10 14 -10 8 0 18 5 21 10 3 6 -3 10 -14 10 -12
0 -21 -4 -21 -10z"/>
<path d="M11918 7493 c7 -3 16 -2 19 1 4 3 -2 6 -13 5 -11 0 -14 -3 -6 -6z"/>
<path d="M14500 7490 c-35 -5 -98 -20 -140 -34 -106 -35 -181 -49 -226 -44
-50 6 -116 -13 -176 -51 -61 -39 -62 -57 -8 -191 26 -65 40 -116 40 -146 0
-75 49 -151 117 -179 60 -25 70 -21 72 33 7 179 18 252 49 314 38 78 72 111
136 132 164 55 215 16 171 -130 -49 -165 -259 -506 -395 -641 -38 -39 -70 -78
-70 -87 0 -8 11 -23 25 -32 l26 -17 -42 -18 -41 -19 7 -48 c4 -26 11 -55 16
-64 15 -29 61 -22 94 12 60 62 149 70 526 48 192 -11 210 -10 254 6 82 32 105
109 69 231 -25 88 -64 124 -96 91 -24 -23 -110 -63 -194 -90 -89 -28 -235 -66
-256 -66 -8 0 4 20 28 46 140 150 285 384 342 550 46 135 38 274 -20 333 -52
53 -179 78 -308 61z m-51 -917 c-33 -45 -95 -103 -108 -103 -9 0 14 27 49 60
68 62 81 71 59 43z"/>
<path d="M2856 7472 c-3 -6 -2 -22 4 -36 8 -23 14 -25 37 -20 37 9 40 12 17
20 -10 4 -26 16 -35 27 -10 12 -19 16 -23 9z"/>
<path d="M11808 7453 c7 -3 16 -2 19 1 4 3 -2 6 -13 5 -11 0 -14 -3 -6 -6z"/>
<path d="M13250 7426 c-172 -38 -327 -188 -382 -370 -18 -61 -38 -192 -38
-253 0 -73 21 -190 46 -253 25 -65 97 -172 145 -215 70 -63 104 -73 289 -80
247 -11 342 18 461 139 118 118 159 232 159 441 0 205 -29 294 -135 418 -55
64 -77 81 -148 116 -140 68 -267 86 -397 57z m229 -167 c17 -6 31 -15 31 -20
0 -4 14 -31 30 -59 35 -59 36 -68 13 -66 -12 1 -17 -5 -16 -19 29 -244 32
-302 22 -392 -19 -173 -131 -326 -225 -308 -132 24 -195 233 -161 530 29 251
88 345 218 345 31 0 70 -5 88 -11z"/>
<path d="M2885 7390 c3 -5 15 -10 26 -10 11 0 17 5 14 10 -3 6 -15 10 -26 10
-11 0 -17 -4 -14 -10z"/>
<path d="M3430 7179 c-30 -12 -70 -48 -70 -63 0 -6 9 -22 20 -36 45 -57 14
-132 -135 -330 -104 -138 -170 -240 -184 -283 -11 -33 -10 -41 6 -70 11 -17
37 -42 59 -54 49 -28 168 -56 205 -48 26 6 28 9 32 78 6 87 9 102 54 245 36
112 49 132 57 90 2 -13 9 -52 16 -88 55 -300 144 -476 259 -511 34 -10 44 -9
66 5 24 16 25 19 12 40 -20 31 -28 166 -9 166 4 0 6 -21 4 -47 -3 -51 10 -85
26 -68 5 6 15 39 22 75 30 151 182 401 328 538 51 47 62 51 62 23 0 -10 14
-45 30 -76 l30 -57 -48 -62 c-58 -74 -91 -125 -126 -194 -19 -38 -36 -56 -64
-69 -37 -17 -37 -17 -9 -21 15 -2 27 -5 27 -6 0 -1 -10 -32 -22 -67 -29 -87
-31 -208 -4 -238 11 -12 26 -21 35 -21 9 0 25 -16 35 -35 37 -69 166 -150 277
-175 33 -7 90 -11 135 -8 66 4 92 11 157 43 109 54 142 84 133 118 -3 15 -13
27 -21 27 -7 0 -56 -14 -107 -31 -94 -32 -228 -49 -281 -35 -14 3 -39 18 -56
32 -29 24 -31 30 -31 92 0 73 26 181 46 189 9 3 197 -44 280 -71 20 -7 85 31
99 58 19 35 7 60 -37 76 -78 28 -187 58 -235 65 -29 4 -53 9 -53 12 0 12 85
148 109 174 l26 29 139 -50 c76 -27 143 -53 149 -59 16 -16 -24 -21 -95 -13
-37 5 -73 5 -79 1 -12 -7 131 -43 218 -54 48 -6 54 -5 78 21 14 15 25 33 25
41 0 23 34 10 47 -19 24 -50 34 -134 48 -423 15 -296 25 -383 49 -419 8 -13
39 -28 79 -40 89 -25 118 -14 196 72 85 95 98 110 143 170 21 28 41 52 43 52
2 0 2 -15 -1 -32 -9 -61 -4 -319 6 -338 12 -22 81 -44 110 -35 11 4 30 -1 42
-9 35 -24 98 -20 138 9 49 36 302 304 430 455 25 29 50 58 55 64 6 6 34 45 63
88 79 116 68 170 -46 221 -59 27 -184 46 -217 33 -15 -5 -14 -9 4 -32 36 -46
24 -94 -58 -238 -73 -128 -295 -419 -278 -364 5 15 11 56 37 256 6 42 13 131
16 197 3 66 10 130 15 143 17 45 -54 136 -115 148 -66 12 -176 -15 -213 -52
l-24 -24 25 -31 c14 -17 26 -40 26 -52 0 -28 -52 -138 -73 -156 -10 -7 -17
-18 -17 -23 0 -22 -202 -258 -221 -258 -10 0 1 32 13 41 25 17 55 437 39 552
-12 88 -29 120 -72 137 -40 17 -146 7 -206 -20 -25 -11 -48 -19 -49 -17 -2 2
1 20 7 42 8 26 8 45 0 61 -22 49 -53 58 -426 123 -300 53 -301 53 -315 96 -7
22 -18 35 -29 35 -10 0 -26 9 -37 21 -26 29 -102 66 -170 84 -67 17 -124 8
-160 -26 -47 -44 -176 -331 -199 -441 -11 -54 -22 -27 -28 65 -4 50 -10 184
-13 297 -4 113 -11 215 -15 228 -20 52 -167 89 -239 61z"/>
<path d="M2940 7145 c0 -25 14 -34 24 -16 8 12 -3 41 -15 41 -5 0 -9 -11 -9
-25z"/>
<path d="M16436 7041 c37 -35 900 -238 922 -217 5 5 -20 12 -100 26 -38 7 -68
16 -68 20 0 4 -23 10 -52 13 -28 4 -54 10 -57 15 -3 4 -33 14 -66 21 -33 7
-168 40 -300 72 -233 57 -300 69 -279 50z"/>
<path d="M2765 6980 c-3 -5 -2 -10 4 -10 5 0 13 5 16 10 3 6 2 10 -4 10 -5 0
-13 -4 -16 -10z"/>
<path d="M6140 6930 c20 -13 33 -13 25 0 -3 6 -14 10 -23 10 -15 0 -15 -2 -2
-10z"/>
<path d="M2666 6875 c-3 -8 -1 -15 4 -15 6 0 10 7 10 15 0 8 -2 15 -4 15 -2 0
-6 -7 -10 -15z"/>
<path d="M12650 6823 c0 -6 7 -16 15 -23 8 -7 12 -16 9 -21 -3 -5 0 -9 5 -9
16 0 14 9 -9 37 -11 14 -20 21 -20 16z"/>
<path d="M2510 6810 c-13 -8 -12 -10 3 -10 9 0 17 5 17 10 0 12 -1 12 -20 0z"/>
<path d="M12520 6802 c0 -12 59 -22 66 -10 3 4 -1 8 -8 8 -7 0 -23 3 -35 6
-13 4 -23 2 -23 -4z"/>
<path d="M2418 6783 c7 -3 16 -2 19 1 4 3 -2 6 -13 5 -11 0 -14 -3 -6 -6z"/>
<path d="M12723 6753 c9 -2 25 -2 35 0 9 3 1 5 -18 5 -19 0 -27 -2 -17 -5z"/>
<path d="M12768 6713 c7 -3 16 -2 19 1 4 3 -2 6 -13 5 -11 0 -14 -3 -6 -6z"/>
<path d="M2095 6700 c-3 -6 1 -7 9 -4 18 7 21 14 7 14 -6 0 -13 -4 -16 -10z"/>
<path d="M17595 6668 c-38 -16 -182 -69 -320 -118 -339 -119 -400 -142 -700
-264 -143 -58 -359 -138 -480 -177 -121 -39 -226 -72 -234 -75 -32 -10 -2 -12
44 -3 93 19 431 123 450 139 6 5 28 11 50 16 36 6 98 28 235 84 129 53 400
157 510 196 69 25 127 49 128 55 2 5 15 9 29 9 13 0 31 7 39 15 9 8 28 15 44
15 16 0 35 6 42 14 8 7 63 34 123 60 61 25 117 51 125 56 31 20 -14 9 -85 -22z"/>
<path d="M2068 6673 c7 -3 16 -2 19 1 4 3 -2 6 -13 5 -11 0 -14 -3 -6 -6z"/>
<path d="M2015 6640 c3 -5 11 -10 16 -10 6 0 7 5 4 10 -3 6 -11 10 -16 10 -6
0 -7 -4 -4 -10z"/>
<path d="M12791 6568 c0 -28 2 -30 9 -13 12 28 12 45 0 45 -5 0 -10 -15 -9
-32z"/>
<path d="M12810 6545 c0 -8 5 -15 10 -15 6 0 10 7 10 15 0 8 -4 15 -10 15 -5
0 -10 -7 -10 -15z"/>
<path d="M6665 6500 c3 -5 8 -10 11 -10 2 0 4 5 4 10 0 6 -5 10 -11 10 -5 0
-7 -4 -4 -10z"/>
<path d="M13990 6460 c0 -5 7 -10 16 -10 8 0 12 5 9 10 -3 6 -10 10 -16 10 -5
0 -9 -4 -9 -10z"/>
<path d="M5910 6430 c0 -5 5 -10 10 -10 6 0 10 5 10 10 0 6 -4 10 -10 10 -5 0
-10 -4 -10 -10z"/>
<path d="M14022 6429 c2 -7 10 -15 17 -17 8 -3 12 1 9 9 -2 7 -10 15 -17 17
-8 3 -12 -1 -9 -9z"/>
<path d="M15056 6335 c-16 -12 -17 -15 -4 -15 8 0 21 7 28 15 16 19 1 19 -24
0z"/>
<path d="M15063 6291 c-9 -15 -9 -23 2 -37 14 -18 14 -18 15 7 0 14 5 30 12
37 9 9 9 12 -3 12 -8 0 -20 -9 -26 -19z"/>
<path d="M14228 6293 c7 -3 16 -2 19 1 4 3 -2 6 -13 5 -11 0 -14 -3 -6 -6z"/>
<path d="M9138 6268 c9 -9 15 -9 24 0 9 9 7 12 -12 12 -19 0 -21 -3 -12 -12z"/>
<path d="M13736 6266 c7 -17 44 -22 44 -6 0 6 -4 10 -9 10 -5 0 -17 3 -25 6
-12 5 -15 2 -10 -10z"/>
<path d="M13575 6256 c-18 -8 -25 -15 -18 -19 7 -4 29 2 50 13 43 23 18 28
-32 6z"/>
<path d="M14976 6261 c-7 -11 3 -41 14 -41 4 0 7 11 6 25 -1 25 -10 32 -20 16z"/>
<path d="M14670 6246 c0 -13 58 -31 68 -21 3 3 -2 5 -10 5 -9 0 -21 7 -28 15
-16 19 -30 19 -30 1z"/>
<path d="M13130 6243 c8 -3 21 -12 28 -21 10 -14 12 -13 12 6 0 18 -6 22 -27
21 -16 0 -21 -3 -13 -6z"/>
<path d="M13222 6233 c5 -26 33 -28 35 -3 1 14 -4 20 -18 20 -14 0 -19 -6 -17
-17z"/>
<path d="M14468 6234 c13 -9 30 -13 39 -10 20 8 16 12 -27 20 -34 6 -35 6 -12
-10z"/>
<path d="M13330 6231 c8 -6 24 -11 34 -11 18 0 18 -1 1 -20 -16 -17 -16 -20
-2 -20 8 0 17 -4 19 -8 4 -12 78 -2 78 9 0 5 -7 9 -16 9 -9 0 -23 9 -32 19
-10 11 -35 23 -57 26 -30 5 -36 4 -25 -4z"/>
<path d="M13605 6230 c-4 -6 8 -10 29 -10 20 0 36 5 36 10 0 6 -13 10 -29 10
-17 0 -33 -4 -36 -10z"/>
<path d="M14527 6215 c-9 -22 8 -26 21 -4 10 15 10 19 -2 19 -8 0 -16 -7 -19
-15z"/>
<path d="M13609 6184 c21 -15 24 -15 39 0 15 15 13 16 -23 16 -39 0 -39 0 -16
-16z"/>
<path d="M14666 6186 c18 -8 35 -19 38 -25 9 -14 36 -14 36 -1 0 6 -7 10 -16
10 -10 0 -14 6 -10 15 4 12 -3 15 -37 15 l-42 -1 31 -13z"/>
<path d="M14188 6173 c7 -3 16 -2 19 1 4 3 -2 6 -13 5 -11 0 -14 -3 -6 -6z"/>
<path d="M14585 6170 c-3 -5 -1 -10 4 -10 6 0 11 5 11 10 0 6 -2 10 -4 10 -3
0 -8 -4 -11 -10z"/>
<path d="M13474 6149 c-3 -5 -14 -9 -25 -9 -11 0 -27 -7 -35 -15 -9 -8 -24
-15 -35 -15 -10 0 -19 -7 -19 -15 0 -8 7 -15 15 -15 8 0 15 3 15 8 0 10 58 42
76 42 9 0 12 -5 8 -12 -5 -8 0 -9 17 -5 13 4 27 7 32 7 16 0 6 16 -18 27 -14
6 -27 7 -31 2z"/>
<path d="M13664 6143 c2 -10 8 -18 14 -17 34 3 36 5 18 19 -26 20 -35 19 -32
-2z"/>
<path d="M13730 6140 c0 -5 15 -10 33 -10 24 0 28 3 17 10 -20 13 -50 13 -50
0z"/>
<path d="M12962 6073 c-6 -2 -10 -9 -6 -14 9 -14 41 -10 48 6 5 15 -15 19 -42
8z"/>
<path d="M15666 6069 c-14 -9 -15 -13 -6 -19 19 -12 4 -39 -25 -46 -18 -4 -32
-1 -46 12 -17 15 -23 16 -41 5 -13 -8 -36 -10 -68 -6 -27 4 -57 2 -66 -3 -12
-7 -26 -6 -42 1 -19 9 -26 8 -36 -4 -8 -12 -27 -15 -73 -14 -63 2 -69 -5 -40
-42 5 -7 7 -20 3 -28 -4 -12 4 -15 42 -14 l47 1 -33 14 c-18 8 -30 19 -27 24
9 15 51 12 65 -5 14 -17 90 -21 90 -5 0 6 27 10 60 10 33 0 60 4 60 10 0 6 23
10 50 10 28 0 50 5 50 10 0 6 7 10 15 10 9 0 18 7 22 16 4 12 14 14 34 10 33
-6 41 13 8 21 -14 4 -19 12 -16 24 6 22 0 23 -27 8z"/>
<path d="M8611 6058 c-1 -10 6 -18 14 -18 18 0 20 -16 3 -23 -8 -3 -6 -6 5 -6
9 -1 17 -8 17 -16 0 -8 7 -15 15 -15 17 0 20 16 5 25 -5 3 -10 15 -10 26 0 12
-7 19 -19 19 -11 0 -22 6 -24 13 -3 7 -6 5 -6 -5z"/>
<path d="M8885 6060 c3 -5 13 -10 21 -10 8 0 14 5 14 10 0 6 -9 10 -21 10 -11
0 -17 -4 -14 -10z"/>
<path d="M8720 6030 c0 -5 4 -10 9 -10 14 0 22 -30 12 -47 -9 -17 19 -53 41
-53 6 0 2 8 -10 18 -15 13 -18 22 -11 29 8 8 7 18 -2 34 -7 13 -12 27 -11 32
1 4 -5 7 -13 7 -8 0 -15 -4 -15 -10z"/>
<path d="M15485 6030 c4 -6 11 -8 16 -5 14 9 11 15 -7 15 -8 0 -12 -5 -9 -10z"/>
<path d="M13093 6023 c9 -2 25 -2 35 0 9 3 1 5 -18 5 -19 0 -27 -2 -17 -5z"/>
<path d="M15765 6011 c-37 -10 -52 -17 -38 -19 25 -4 121 22 107 29 -5 3 -36
-2 -69 -10z"/>
<path d="M8588 6003 c7 -3 16 -2 19 1 4 3 -2 6 -13 5 -11 0 -14 -3 -6 -6z"/>
<path d="M13140 5980 c0 -5 5 -10 10 -10 6 0 10 5 10 10 0 6 -4 10 -10 10 -5
0 -10 -4 -10 -10z"/>
<path d="M15114 5970 c-12 -5 -24 -15 -27 -24 -12 -31 -53 -17 -48 17 1 10
-31 9 -48 -2 -11 -7 -10 -13 3 -34 20 -29 37 -34 129 -36 54 -2 67 1 67 13 0
8 -9 20 -20 26 -10 6 -17 16 -14 24 7 17 -15 26 -42 16z"/>
<path d="M12893 5943 c9 -9 19 -14 23 -11 10 10 -6 28 -24 28 -15 0 -15 -1 1
-17z"/>
<path d="M13100 5930 c0 -5 5 -10 10 -10 6 0 10 5 10 10 0 6 -4 10 -10 10 -5
0 -10 -4 -10 -10z"/>
<path d="M14488 5913 c7 -3 16 -2 19 1 4 3 -2 6 -13 5 -11 0 -14 -3 -6 -6z"/>
<path d="M4892 5898 c6 -18 28 -21 28 -4 0 9 -7 16 -16 16 -9 0 -14 -5 -12
-12z"/>
<path d="M14260 5889 c0 -5 5 -7 10 -4 6 3 10 8 10 11 0 2 -4 4 -10 4 -5 0
-10 -5 -10 -11z"/>
<path d="M14065 5870 c-3 -5 -17 -10 -31 -10 -13 0 -24 -5 -24 -11 0 -7 11 -8
30 -4 19 4 30 3 30 -4 0 -7 37 -11 105 -11 87 0 105 3 105 15 0 19 -42 20 -70
3 -16 -10 -24 -10 -40 0 -11 6 -31 12 -44 12 -14 0 -28 5 -31 10 -3 6 -10 10
-15 10 -5 0 -12 -4 -15 -10z"/>
<path d="M8770 5840 c0 -5 4 -10 9 -10 6 0 13 5 16 10 3 6 -1 10 -9 10 -9 0
-16 -4 -16 -10z"/>
<path d="M13730 5839 c0 -9 39 -19 78 -19 23 0 32 4 30 13 -5 12 -108 18 -108
6z"/>
<path d="M4925 5780 c-4 -6 -5 -12 -4 -14 2 -1 17 -12 33 -24 16 -12 36 -22
45 -22 14 1 14 3 -2 14 -10 8 -17 22 -15 33 2 13 -4 19 -24 21 -14 2 -29 -2
-33 -8z"/>
<path d="M8760 5730 c0 -6 -15 -19 -32 -30 -18 -11 -28 -20 -23 -20 11 0 52
26 73 47 11 11 11 13 -2 13 -9 0 -16 -5 -16 -10z"/>
<path d="M5558 5713 c7 -3 16 -2 19 1 4 3 -2 6 -13 5 -11 0 -14 -3 -6 -6z"/>
<path d="M5030 5695 c0 -10 7 -15 18 -13 21 4 19 22 -2 26 -10 2 -16 -3 -16
-13z"/>
<path d="M5058 5648 c-39 -23 -50 -51 -22 -62 22 -9 21 -10 49 31 40 59 33 66
-27 31z"/>
<path d="M6471 5644 c0 -11 3 -14 6 -6 3 7 2 16 -1 19 -3 4 -6 -2 -5 -13z"/>
<path d="M5460 5625 c-10 -12 -10 -15 3 -15 8 0 20 7 27 15 10 12 10 15 -3 15
-8 0 -20 -7 -27 -15z"/>
<path d="M6175 5550 c3 -5 8 -10 11 -10 2 0 4 5 4 10 0 6 -5 10 -11 10 -5 0
-7 -4 -4 -10z"/>
<path d="M4826 5534 c-12 -11 -14 -20 -7 -27 5 -5 7 -16 4 -23 -3 -8 -1 -14 4
-14 20 0 71 31 77 47 8 19 8 19 -30 27 -23 5 -36 2 -48 -10z"/>
<path d="M5330 5540 c0 -5 -10 -10 -22 -11 l-23 0 23 -9 c25 -10 30 -40 7 -40
-8 0 -15 -3 -15 -8 0 -7 41 -36 43 -30 1 2 7 12 13 23 6 11 10 31 8 45 -1 14
-3 28 -3 33 -1 11 -31 8 -31 -3z"/>
<path d="M5490 5540 c0 -13 11 -13 30 0 12 8 11 10 -7 10 -13 0 -23 -4 -23
-10z"/>
<path d="M5470 5521 c0 -16 25 -30 39 -22 11 7 9 11 -7 20 -25 13 -32 14 -32
2z"/>
<path d="M4940 5510 c-8 -5 -11 -10 -6 -10 6 0 1 -7 -10 -15 -19 -14 -18 -14
3 -15 12 0 26 7 30 15 8 13 14 13 51 -1 44 -18 57 -44 22 -44 -29 0 -24 -17 8
-25 l27 -7 -22 -15 c-28 -19 -29 -40 -3 -48 24 -8 40 1 40 22 0 12 7 14 36 10
32 -5 36 -4 31 13 -3 14 3 21 27 30 67 25 76 30 76 40 0 16 -38 12 -80 -10
-35 -18 -112 -29 -97 -14 3 4 0 19 -8 34 -10 20 -27 31 -59 39 -53 13 -47 13
-66 1z"/>
<path d="M7076 5505 c-11 -8 -15 -15 -9 -15 6 0 16 7 23 15 16 19 11 19 -14 0z"/>
<path d="M6090 5450 c-13 -8 -12 -10 3 -10 9 0 17 5 17 10 0 12 -1 12 -20 0z"/>
<path d="M4498 5411 c-9 -11 -14 -22 -11 -24 6 -6 43 24 43 35 0 14 -15 9 -32
-11z"/>
<path d="M5215 5416 c-17 -12 -18 -16 -5 -32 12 -13 12 -18 3 -21 -21 -7 -15
-20 13 -27 37 -10 68 2 54 19 -7 8 -9 19 -5 25 3 5 -1 10 -9 10 -21 0 -20 10
2 26 16 12 15 13 -9 14 -14 0 -34 -6 -44 -14z"/>
<path d="M6164 5421 c-5 -5 -18 -11 -29 -14 -15 -4 -14 -5 7 -6 15 0 30 4 33
10 9 14 1 21 -11 10z"/>
<path d="M5780 5385 c0 -17 18 -19 38 -6 11 7 10 10 -3 15 -26 10 -35 7 -35
-9z"/>
<path d="M5915 5380 c3 -5 12 -10 20 -10 8 0 17 5 20 10 4 6 -5 10 -20 10 -15
0 -24 -4 -20 -10z"/>
<path d="M6060 5380 c0 -5 7 -10 16 -10 8 0 12 5 9 10 -3 6 -10 10 -16 10 -5
0 -9 -4 -9 -10z"/>
<path d="M6198 5373 c6 -2 18 -2 25 0 6 3 1 5 -13 5 -14 0 -19 -2 -12 -5z"/>
<path d="M5848 5360 c-1 -5 -23 -11 -47 -12 -24 -2 -46 -8 -48 -15 -3 -8 7
-11 34 -8 27 3 31 3 14 -3 -14 -4 -26 -13 -28 -19 -5 -15 36 -43 65 -43 19 0
22 4 17 20 -6 18 -2 20 32 21 35 0 36 1 16 11 -24 12 -31 28 -12 28 8 0 8 5
-1 15 -14 17 -37 20 -42 5z"/>
<path d="M5990 5355 c0 -8 7 -15 15 -15 9 0 12 6 9 15 -4 8 -10 15 -15 15 -5
0 -9 -7 -9 -15z"/>
<path d="M6100 5360 c0 -5 5 -10 10 -10 6 0 10 5 10 10 0 6 -4 10 -10 10 -5 0
-10 -4 -10 -10z"/>
<path d="M7505 5350 c-3 -5 1 -10 10 -10 9 0 13 5 10 10 -3 6 -8 10 -10 10 -2
0 -7 -4 -10 -10z"/>
<path d="M4488 5333 c6 -2 18 -2 25 0 6 3 1 5 -13 5 -14 0 -19 -2 -12 -5z"/>
<path d="M7555 5330 c-3 -5 -1 -10 4 -10 6 0 11 5 11 10 0 6 -2 10 -4 10 -3 0
-8 -4 -11 -10z"/>
<path d="M5126 5310 l-28 -18 58 2 c59 1 83 18 42 30 -32 8 -39 7 -72 -14z"/>
<path d="M6190 5305 c0 -9 9 -15 21 -15 18 0 19 2 5 15 -8 8 -17 15 -20 15 -3
0 -6 -7 -6 -15z"/>
<path d="M6250 5270 c0 -5 7 -10 16 -10 8 0 12 5 9 10 -3 6 -10 10 -16 10 -5
0 -9 -4 -9 -10z"/>
<path d="M6935 5260 c-3 -5 1 -10 10 -10 9 0 13 5 10 10 -3 6 -8 10 -10 10 -2
0 -7 -4 -10 -10z"/>
<path d="M6135 5240 c3 -5 11 -10 16 -10 6 0 7 5 4 10 -3 6 -11 10 -16 10 -6
0 -7 -4 -4 -10z"/>
<path d="M6234 5235 c8 -8 19 -15 25 -15 17 0 13 17 -5 24 -27 10 -36 7 -20
-9z"/>
<path d="M7430 5240 c0 -5 12 -10 28 -10 21 0 24 2 12 10 -20 13 -40 13 -40 0z"/>
<path d="M6340 5227 c0 -10 -7 -20 -15 -23 -18 -7 -20 -24 -2 -24 19 0 41 40
28 53 -8 8 -11 6 -11 -6z"/>
<path d="M5965 5220 c3 -5 13 -10 21 -10 8 0 14 5 14 10 0 6 -9 10 -21 10 -11
0 -17 -4 -14 -10z"/>
<path d="M7054 5191 c3 -5 16 -11 28 -14 22 -6 22 -5 4 8 -22 17 -40 20 -32 6z"/>
<path d="M7402 5175 c-7 -8 -9 -15 -4 -15 5 0 15 7 22 15 16 19 -1 19 -18 0z"/>
<path d="M7478 5176 c-10 -7 -18 -16 -18 -19 0 -11 53 -18 63 -8 8 8 7 11 -2
11 -8 0 -11 6 -7 15 7 18 -13 19 -36 1z"/>
<path d="M6888 5173 c7 -3 16 -2 19 1 4 3 -2 6 -13 5 -11 0 -14 -3 -6 -6z"/>
<path d="M6968 5173 c7 -3 16 -2 19 1 4 3 -2 6 -13 5 -11 0 -14 -3 -6 -6z"/>
<path d="M6925 5160 c3 -5 8 -10 11 -10 2 0 4 5 4 10 0 6 -5 10 -11 10 -5 0
-7 -4 -4 -10z"/>
<path d="M7010 5155 c0 -10 -10 -15 -30 -15 -23 0 -30 -4 -30 -20 0 -11 3 -20
8 -20 14 1 91 58 85 64 -12 12 -33 6 -33 -9z"/>
<path d="M7126 5155 c21 -16 44 -19 44 -6 0 5 -10 11 -22 15 -37 9 -43 7 -22
-9z"/>
<path d="M7580 5158 c0 -6 -7 -20 -17 -30 -26 -28 8 -24 35 5 27 29 28 37 2
37 -11 0 -20 -5 -20 -12z"/>
<path d="M6830 5150 c-13 -8 -12 -10 3 -10 9 0 17 5 17 10 0 12 -1 12 -20 0z"/>
<path d="M7425 5130 c3 -5 8 -10 11 -10 2 0 4 5 4 10 0 6 -5 10 -11 10 -5 0
-7 -4 -4 -10z"/>
<path d="M6790 5121 c0 -11 31 -24 39 -16 3 3 -1 10 -9 15 -19 12 -30 12 -30
1z"/>
<path d="M7488 5113 c7 -3 16 -2 19 1 4 3 -2 6 -13 5 -11 0 -14 -3 -6 -6z"/>
<path d="M6657 5093 c-4 -3 -7 -15 -7 -25 0 -15 8 -18 42 -18 l41 0 -23 25
c-23 25 -41 31 -53 18z"/>
<path d="M6796 5091 c-5 -7 -3 -18 3 -24 14 -14 20 -6 11 17 -5 15 -9 16 -14
7z"/>
<path d="M7008 5073 c7 -3 16 -2 19 1 4 3 -2 6 -13 5 -11 0 -14 -3 -6 -6z"/>
<path d="M7620 5030 c0 -5 11 -10 25 -10 14 0 25 5 25 10 0 6 -11 10 -25 10
-14 0 -25 -4 -25 -10z"/>
</g>
</svg>
